<svg xmlns="http://www.w3.org/2000/svg" xmlns:xlink="http://www.w3.org/1999/xlink" width="500" zoomAndPan="magnify" viewBox="0 0 375 374.999991" height="500" preserveAspectRatio="xMidYMid meet" version="1.0"><defs><g/><clipPath id="7341e22bfc"><path d="M 112.5 249 L 262.5 249 L 262.5 337.5 L 112.5 337.5 Z M 112.5 249 " clip-rule="nonzero"/></clipPath><clipPath id="98dbe6cf41"><path d="M 151.304688 140.914062 L 169.210938 140.914062 L 169.210938 154.472656 L 151.304688 154.472656 Z M 151.304688 140.914062 " clip-rule="nonzero"/></clipPath><clipPath id="72c0ecb2c8"><path d="M 156.175781 143.992188 C 160.875 143.273438 162.074219 143.753906 162.628906 144.46875 C 163.1875 145.109375 163.347656 146.144531 163.425781 147.101562 C 163.507812 148.214844 163.269531 149.890625 162.710938 150.6875 C 162.3125 151.246094 161.59375 151.644531 161.035156 151.722656 C 160.476562 151.804688 159.679688 151.644531 159.203125 151.324219 C 158.644531 150.925781 158.007812 150.050781 158.007812 149.253906 C 158.007812 148.058594 159.441406 146.0625 160.398438 144.867188 C 161.277344 143.832031 163.585938 142.636719 163.507812 142.476562 C 163.425781 142.316406 161.355469 143.195312 161.355469 143.195312 C 161.355469 143.195312 163.425781 142.078125 164.222656 142.238281 C 164.941406 142.398438 165.738281 143.355469 165.976562 143.992188 C 166.21875 144.550781 166.136719 145.265625 165.898438 145.824219 C 165.578125 146.542969 164.78125 147.5 163.984375 147.816406 C 163.269531 148.136719 162.230469 147.976562 161.355469 147.65625 C 160.238281 147.257812 158.328125 146.0625 157.847656 145.027344 C 157.449219 144.152344 157.609375 142.714844 158.085938 142 C 158.484375 141.363281 159.679688 140.964844 160.398438 140.964844 C 161.035156 140.964844 162.152344 141.761719 162.152344 141.839844 C 162.074219 142 158.964844 141.363281 158.964844 141.28125 C 158.964844 141.203125 163.1875 140.964844 164.703125 141.441406 C 165.820312 141.839844 166.773438 142.476562 167.332031 143.273438 C 167.8125 143.914062 168.128906 144.710938 168.050781 145.664062 C 167.96875 147.101562 167.171875 149.730469 165.976562 150.847656 C 164.863281 151.960938 162.710938 152.601562 161.117188 152.519531 C 159.523438 152.441406 156.652344 151.402344 156.492188 150.605469 C 156.332031 149.96875 157.53125 148.933594 158.328125 148.535156 C 159.125 148.136719 160.957031 148.058594 161.195312 148.375 C 161.355469 148.613281 160.71875 149.332031 160.796875 149.410156 C 160.957031 149.570312 162.3125 148.136719 163.027344 148.058594 C 163.667969 147.976562 164.464844 148.214844 164.941406 148.613281 C 165.421875 149.011719 165.898438 149.730469 165.976562 150.367188 C 166.058594 151.003906 166.058594 151.804688 165.660156 152.359375 C 165.179688 153 164.066406 153.554688 163.1875 153.875 C 162.3125 154.195312 161.277344 154.351562 160.398438 154.195312 C 159.523438 153.953125 158.566406 153.476562 157.847656 152.601562 C 156.8125 151.402344 155.777344 148.695312 155.457031 147.257812 C 155.296875 146.304688 155.21875 145.585938 155.535156 144.867188 C 155.933594 143.914062 156.890625 142.796875 158.085938 142.316406 C 159.921875 141.601562 164.144531 141.761719 165.898438 142.316406 C 166.933594 142.636719 167.570312 143.113281 168.128906 143.832031 C 168.6875 144.550781 169.007812 145.746094 169.085938 146.621094 C 169.167969 147.417969 169.085938 148.214844 168.6875 149.011719 C 168.210938 149.96875 167.015625 151.085938 166.136719 151.722656 C 165.421875 152.203125 164.863281 152.441406 163.824219 152.679688 C 161.753906 153.15625 156.574219 154.035156 154.5 153.078125 C 153.144531 152.441406 152.1875 150.925781 151.789062 149.730469 C 151.390625 148.695312 151.472656 147.417969 151.710938 146.460938 C 151.949219 145.664062 152.347656 144.789062 153.066406 144.3125 C 154.023438 143.671875 156.175781 143.433594 157.371094 143.59375 C 158.246094 143.671875 158.964844 143.914062 159.601562 144.550781 C 160.558594 145.507812 162.230469 148.058594 161.992188 149.332031 C 161.832031 150.289062 160.476562 151.324219 159.679688 151.5625 C 158.964844 151.722656 158.085938 151.484375 157.53125 151.003906 C 156.972656 150.527344 156.332031 149.410156 156.414062 148.613281 C 156.574219 147.738281 157.769531 146.304688 158.644531 146.0625 C 159.363281 145.824219 160.558594 146.222656 161.117188 146.78125 C 161.675781 147.339844 162.152344 148.457031 161.992188 149.253906 C 161.832031 149.96875 161.117188 151.085938 160.398438 151.324219 C 159.523438 151.644531 157.609375 151.324219 157.050781 150.605469 C 156.492188 149.890625 156.332031 147.898438 156.890625 147.179688 C 157.449219 146.382812 159.839844 146.0625 160.71875 146.382812 C 161.355469 146.621094 161.753906 147.417969 161.914062 147.976562 C 162.074219 148.613281 162.074219 149.410156 161.753906 149.96875 C 161.433594 150.605469 160.398438 151.402344 159.679688 151.5625 C 159.042969 151.722656 158.246094 151.5625 157.769531 151.164062 C 157.128906 150.605469 156.414062 148.457031 156.890625 147.738281 C 157.609375 146.78125 163.425781 147.816406 163.507812 147.5 C 163.507812 147.257812 161.515625 146.222656 161.035156 146.542969 C 160.558594 146.859375 160.476562 149.253906 160.796875 149.410156 C 161.035156 149.570312 161.832031 148.375 162.390625 148.214844 C 163.027344 148.058594 163.824219 148.058594 164.382812 148.296875 C 164.941406 148.535156 165.578125 149.171875 165.820312 149.730469 C 166.058594 150.289062 166.21875 151.085938 165.976562 151.722656 C 165.660156 152.519531 164.863281 153.398438 163.824219 153.796875 C 162.074219 154.433594 157.53125 153.875 155.695312 153.078125 C 154.5 152.601562 153.542969 151.882812 153.144531 150.925781 C 152.746094 149.96875 152.746094 148.214844 153.226562 147.339844 C 153.625 146.542969 154.421875 145.90625 155.457031 145.585938 C 156.972656 145.109375 161.59375 146.144531 161.59375 145.984375 C 161.59375 145.824219 158.484375 145.664062 157.847656 145.027344 C 157.449219 144.550781 157.371094 143.671875 157.53125 143.113281 C 157.6875 142.558594 158.007812 141.839844 158.566406 141.519531 C 159.125 141.121094 160.238281 140.964844 161.035156 141.121094 C 161.992188 141.28125 163.824219 142.398438 163.746094 142.875 C 163.667969 143.273438 161.117188 143.914062 161.035156 143.753906 C 160.957031 143.59375 161.832031 142.636719 162.390625 142.398438 C 162.949219 142.160156 163.667969 142 164.222656 142.238281 C 164.941406 142.558594 166.058594 143.511719 166.136719 144.550781 C 166.296875 146.0625 163.90625 149.730469 162.628906 150.847656 C 161.914062 151.484375 161.117188 151.804688 160.398438 151.722656 C 159.679688 151.644531 158.644531 151.085938 158.328125 150.449219 C 158.007812 149.730469 158.644531 147.5 158.644531 147.5 C 158.644531 147.5 158.726562 148.136719 158.566406 148.375 C 158.328125 148.695312 157.53125 148.855469 156.972656 148.773438 C 156.332031 148.695312 155.296875 148.296875 154.898438 147.738281 C 154.5 147.179688 154.339844 146.144531 154.582031 145.507812 C 154.820312 144.867188 156.175781 143.992188 156.175781 143.992188 " clip-rule="nonzero"/></clipPath><clipPath id="e781d25749"><path d="M 148.273438 131.507812 L 170.773438 131.507812 L 170.773438 155.507812 L 148.273438 155.507812 Z M 148.273438 131.507812 " clip-rule="nonzero"/></clipPath></defs><rect x="-37.5" width="450" fill="#ffffff" y="-37.499999" height="449.999989" fill-opacity="1"/><rect x="-37.5" width="450" fill="#ffffff" y="-37.499999" height="449.999989" fill-opacity="1"/><rect x="-37.5" width="450" fill="#0089e1" y="-37.499999" height="449.999989" fill-opacity="1"/><path fill="#ffffff" d="M 254.4375 277.601562 C 254.425781 277.792969 254.375 277.988281 254.234375 278.171875 C 254.074219 278.378906 253.898438 278.574219 253.726562 278.769531 C 249.914062 283.070312 244.816406 286.390625 239.808594 289.101562 C 228.386719 295.28125 215.558594 298.53125 202.730469 300.085938 C 176.585938 303.253906 143.601562 301.53125 125.683594 279.207031 C 124.304688 277.488281 122.972656 275.667969 121.980469 273.691406 C 121.503906 272.753906 121.734375 272.167969 122.230469 271.304688 C 125.339844 265.882812 130.199219 261.410156 135.28125 257.875 C 146.304688 250.207031 159.730469 246.660156 172.964844 245.441406 C 189.507812 243.921875 207.058594 245.320312 222.683594 251.246094 C 232 254.777344 240.804688 260.066406 247.613281 267.417969 C 250.203125 270.214844 252.871094 273.441406 254.386719 276.988281 C 254.480469 277.203125 254.476562 277.410156 254.4375 277.601562 Z M 254.4375 277.601562 " fill-opacity="1" fill-rule="nonzero"/><g clip-path="url(#7341e22bfc)"><path fill="#383838" d="M 211.40625 258.863281 C 215.109375 262.785156 217.488281 267.984375 217.046875 273.457031 C 216.59375 279.046875 213.542969 284.070312 209.539062 287.863281 C 205.105469 292.070312 199.367188 295.09375 193.347656 296.203125 C 188.085938 297.175781 182.632812 296.519531 177.53125 295.035156 C 168.375 292.367188 157.167969 286.019531 156.171875 275.457031 C 155.414062 262.8125 169.808594 253.726562 180.355469 250.652344 C 191.15625 247.503906 203.609375 250.605469 211.40625 258.863281 Z M 262.050781 320.972656 C 256.457031 314.722656 250.863281 308.476562 245.269531 302.230469 C 244.460938 301.328125 243.65625 300.425781 242.847656 299.523438 C 242.820312 299.492188 242.789062 299.484375 242.761719 299.460938 C 242.707031 299.40625 242.648438 299.359375 242.582031 299.324219 C 242.511719 299.285156 242.441406 299.265625 242.371094 299.25 C 242.339844 299.242188 242.308594 299.234375 242.273438 299.230469 C 242.164062 299.21875 242.058594 299.230469 241.953125 299.265625 C 241.933594 299.269531 241.917969 299.265625 241.894531 299.269531 C 239.386719 300.0625 236.878906 300.855469 234.371094 301.644531 C 233.648438 301.875 233.4375 302.726562 233.9375 303.277344 C 239.566406 309.515625 245.195312 315.75 250.824219 321.988281 C 251.636719 322.886719 252.453125 323.789062 253.265625 324.691406 C 253.488281 324.9375 253.898438 325.039062 254.214844 324.941406 C 256.683594 324.164062 259.152344 323.382812 261.617188 322.605469 C 262.34375 322.375 262.546875 321.527344 262.050781 320.972656 Z M 190.117188 311.640625 C 190.109375 311.238281 189.894531 310.980469 189.617188 310.835938 C 189.574219 310.804688 189.53125 310.78125 189.484375 310.757812 C 189.476562 310.757812 189.472656 310.757812 189.46875 310.753906 C 189.367188 310.710938 189.265625 310.671875 189.140625 310.664062 C 186.515625 310.46875 183.890625 310.277344 181.269531 310.082031 C 180.75 310.046875 180.277344 310.5625 180.289062 311.0625 C 180.484375 318.234375 180.679688 325.40625 180.875 332.578125 C 180.902344 333.605469 180.929688 334.628906 180.957031 335.652344 C 180.972656 336.210938 181.394531 336.589844 181.9375 336.632812 C 184.515625 336.820312 187.097656 337.011719 189.679688 337.203125 C 190.199219 337.242188 190.667969 336.722656 190.65625 336.222656 C 190.5 329.054688 190.339844 321.886719 190.183594 314.714844 C 190.160156 313.691406 190.140625 312.667969 190.117188 311.640625 Z M 131.808594 300.492188 C 129.335938 299.601562 126.859375 298.710938 124.386719 297.816406 C 124.332031 297.796875 124.285156 297.804688 124.230469 297.796875 C 124.199219 297.785156 124.164062 297.785156 124.128906 297.78125 C 124.050781 297.773438 123.976562 297.769531 123.90625 297.78125 C 123.839844 297.789062 123.777344 297.816406 123.714844 297.847656 C 123.679688 297.863281 123.644531 297.871094 123.617188 297.894531 C 123.539062 297.941406 123.476562 298.011719 123.414062 298.089844 C 123.402344 298.105469 123.390625 298.121094 123.378906 298.136719 C 123.347656 298.179688 123.308594 298.210938 123.28125 298.265625 C 120.21875 304.746094 117.15625 311.226562 114.09375 317.707031 C 113.652344 318.636719 113.214844 319.566406 112.773438 320.496094 C 112.492188 321.097656 112.730469 321.707031 113.359375 321.933594 C 115.792969 322.8125 118.226562 323.6875 120.660156 324.566406 C 121.039062 324.703125 121.589844 324.480469 121.765625 324.117188 C 124.863281 317.648438 127.960938 311.179688 131.0625 304.710938 C 131.503906 303.785156 131.949219 302.855469 132.394531 301.929688 C 132.679688 301.328125 132.4375 300.71875 131.808594 300.492188 Z M 131.808594 300.492188 " fill-opacity="1" fill-rule="nonzero"/></g><g fill="#383838" fill-opacity="1"><g transform="translate(74.121093, 111.549967)"><g><path d="M 7.039062 0 C 8.625 0 9.328125 -0.878906 9.589844 -2.289062 L 10.03125 -4.398438 C 10.121094 -5.105469 10.558594 -5.457031 11 -5.457031 C 11.351562 -5.457031 11.617188 -5.105469 11.441406 -4.398438 L 10.910156 -1.40625 C 10.734375 0.175781 11.441406 0.617188 12.847656 0.617188 C 14.253906 0.617188 15.046875 -0.0898438 15.488281 -2.726562 L 19.007812 -23.144531 C 19.183594 -24.199219 19.976562 -24.464844 20.855469 -24.464844 L 32.03125 -24.464844 C 34.144531 -24.464844 34.933594 -25.167969 35.199219 -26.3125 C 35.375 -27.277344 34.054688 -27.808594 32.910156 -28.246094 C 31.765625 -28.6875 31.679688 -29.304688 33.175781 -29.742188 C 34.40625 -30.09375 35.285156 -30.625 35.464844 -31.414062 C 35.640625 -32.648438 35.023438 -33.085938 33.261719 -33.085938 L 22.4375 -33.085938 C 20.945312 -33.085938 20.414062 -33.878906 20.765625 -35.285156 L 22.878906 -47.429688 C 23.320312 -49.367188 23.671875 -49.628906 25.871094 -49.628906 L 36.695312 -49.628906 C 38.367188 -49.628906 39.511719 -50.246094 39.773438 -51.480469 C 40.039062 -53.238281 36.605469 -52.886719 36.695312 -53.414062 C 36.78125 -53.855469 37.222656 -54.03125 38.984375 -54.734375 C 40.039062 -55.261719 40.480469 -55.613281 40.566406 -56.140625 C 40.742188 -57.285156 40.039062 -57.726562 39.070312 -57.726562 L 23.847656 -57.726562 C 21.734375 -57.726562 20.945312 -57.285156 20.238281 -55.527344 L 19.535156 -53.503906 C 19.449219 -53.0625 19.269531 -52.796875 19.09375 -52.796875 C 18.917969 -52.796875 18.742188 -53.0625 18.832031 -53.503906 L 18.832031 -55.261719 C 18.566406 -56.496094 18.128906 -56.933594 17.160156 -56.933594 C 15.574219 -56.933594 14.429688 -56.054688 14.078125 -54.03125 L 5.28125 -2.375 C 5.015625 -0.703125 5.367188 0 7.039062 0 Z M 7.039062 0 "/></g></g></g><g fill="#383838" fill-opacity="1"><g transform="translate(105.975687, 111.549967)"><g><path d="M 28.597656 -37.136719 C 28.953125 -37.136719 29.039062 -37.136719 29.039062 -37.136719 L 29.390625 -37.136719 C 30.976562 -37.136719 31.941406 -37.574219 32.296875 -39.246094 C 32.558594 -40.65625 31.503906 -41.535156 29.128906 -41.535156 L 28.246094 -41.535156 C 24.816406 -41.535156 23.496094 -40.742188 21.734375 -39.6875 C 18.390625 -37.488281 18.390625 -33.703125 16.808594 -33.703125 C 15.664062 -33.703125 16.105469 -40.039062 12.230469 -40.039062 C 10.910156 -40.039062 10.121094 -39.160156 9.769531 -37.3125 L 3.609375 -2.199219 C 3.257812 -0.878906 3.519531 0.265625 5.105469 0.265625 C 6.6875 0.265625 7.214844 -0.792969 7.742188 -2.023438 L 8.800781 -5.105469 C 8.976562 -5.894531 9.328125 -6.246094 9.679688 -6.246094 C 10.121094 -6.246094 10.207031 -5.894531 10.03125 -5.105469 L 9.503906 -2.289062 C 9.414062 -0.96875 10.207031 -0.175781 11.617188 -0.0898438 C 13.023438 -0.0898438 14.078125 -1.144531 14.34375 -2.199219 C 14.519531 -2.640625 14.609375 -3.078125 14.695312 -3.433594 L 19.09375 -29.039062 C 19.449219 -30.976562 20.238281 -31.941406 22.792969 -31.941406 L 23.40625 -31.941406 L 29.039062 -31.765625 C 30.535156 -31.765625 31.855469 -32.382812 32.117188 -33.703125 C 32.296875 -34.933594 31.414062 -35.550781 29.566406 -35.726562 L 28.6875 -35.816406 C 27.542969 -35.816406 27.457031 -36.167969 27.457031 -36.519531 C 27.542969 -36.871094 27.808594 -37.136719 28.597656 -37.136719 Z M 28.597656 -37.136719 "/></g></g></g><g fill="#383838" fill-opacity="1"><g transform="translate(134.92641, 111.549967)"><g><path d="M 23.933594 -1.496094 C 24.199219 -1.582031 24.464844 -1.671875 24.640625 -1.671875 C 24.992188 -1.671875 25.078125 -1.40625 24.992188 -0.96875 C 24.640625 0.792969 24.199219 3.167969 23.847656 4.664062 C 23.582031 5.984375 23.757812 7.039062 25.519531 7.128906 L 25.695312 7.128906 C 27.101562 7.128906 27.632812 6.070312 28.070312 4.839844 L 28.773438 2.640625 C 29.128906 1.582031 29.390625 1.144531 29.832031 1.144531 C 30.269531 1.144531 30.445312 1.582031 30.269531 2.289062 L 30.09375 3.871094 C 30.007812 5.105469 30.445312 5.894531 31.765625 5.894531 C 33.261719 5.894531 34.144531 5.105469 34.320312 3.695312 C 37.3125 -11.085938 38.71875 -18.832031 39.597656 -23.582031 C 41.976562 -37.136719 37.488281 -42.238281 27.101562 -42.238281 C 20.945312 -42.238281 17.160156 -41.09375 11.792969 -37.925781 C 10.382812 -37.046875 9.679688 -35.816406 10.296875 -34.847656 C 10.558594 -34.40625 11 -34.320312 11.617188 -34.320312 C 12.320312 -34.320312 13.023438 -34.496094 13.726562 -34.847656 C 14.609375 -35.285156 15.046875 -35.464844 16.015625 -35.816406 C 16.28125 -35.902344 16.542969 -35.992188 16.808594 -35.992188 C 17.421875 -35.992188 17.511719 -35.464844 16.71875 -35.023438 C 15.488281 -34.320312 14.253906 -33.613281 13.550781 -32.558594 C 13.023438 -31.941406 12.757812 -30.710938 13.375 -30.269531 C 13.640625 -30.09375 13.902344 -30.007812 14.253906 -30.007812 C 14.695312 -30.007812 15.222656 -30.269531 15.664062 -30.535156 C 18.832031 -32.382812 21.910156 -33.4375 24.726562 -33.4375 C 29.128906 -33.351562 30.800781 -31.238281 29.566406 -24.289062 C 29.480469 -23.757812 29.304688 -23.582031 28.953125 -23.671875 L 28.6875 -23.671875 C 27.101562 -23.933594 24.375 -24.109375 22.792969 -24.109375 C 13.023438 -24.109375 6.160156 -19.359375 4.929688 -12.320312 C 3.433594 -3.695312 8.183594 0.175781 16.457031 0.175781 C 19.535156 0.175781 21.734375 -0.351562 23.933594 -1.496094 Z M 28.070312 -38.015625 C 33.613281 -38.015625 37.046875 -34.144531 35.285156 -28.953125 C 34.933594 -33.792969 32.824219 -36.34375 28.070312 -38.015625 Z M 14.429688 -12.144531 C 14.960938 -15.136719 17.335938 -16.894531 22.4375 -16.894531 C 24.375 -16.894531 25.429688 -16.71875 27.277344 -16.457031 C 27.808594 -16.457031 28.070312 -16.105469 27.984375 -15.574219 L 26.75 -9.503906 C 26.664062 -9.0625 26.3125 -8.710938 25.695312 -8.449219 C 24.464844 -7.832031 22.878906 -7.566406 20.328125 -7.566406 C 16.015625 -7.65625 13.902344 -9.152344 14.429688 -12.144531 Z M 14.429688 -12.144531 "/></g></g></g><g fill="#383838" fill-opacity="1"><g transform="translate(175.228631, 111.549967)"><g><path d="M 32.558594 -2.023438 C 32.382812 -0.703125 33.175781 0.0898438 34.496094 0.0898438 C 35.640625 0.0898438 36.605469 -0.617188 36.871094 -2.023438 L 41.183594 -26.75 C 43.117188 -37.574219 39.511719 -41.976562 30.183594 -41.976562 C 18.128906 -41.976562 17.597656 -32.824219 16.105469 -32.824219 C 14.695312 -32.824219 15.839844 -40.039062 13.199219 -40.039062 C 11.441406 -40.039062 11.617188 -38.542969 11.441406 -37.488281 L 5.191406 -2.199219 C 4.929688 -0.527344 5.28125 0.265625 6.601562 0.265625 C 8.007812 0.265625 8.535156 -0.441406 9.0625 -2.023438 L 9.679688 -4.136719 C 9.945312 -5.015625 10.207031 -5.457031 10.734375 -5.457031 C 11.265625 -5.457031 11.351562 -5.015625 11.175781 -4.222656 C 11.085938 -3.257812 11 -3.34375 10.910156 -2.289062 C 10.734375 -1.054688 11.527344 -0.175781 12.847656 -0.175781 C 14.167969 -0.175781 15.222656 -1.144531 15.488281 -2.726562 L 20.503906 -31.0625 C 20.679688 -31.855469 21.207031 -32.296875 21.910156 -32.648438 C 23.144531 -33.261719 24.550781 -33.527344 26.398438 -33.527344 C 30.269531 -33.527344 31.855469 -31.328125 30.976562 -26.222656 L 26.488281 -2.289062 C 26.3125 -1.054688 26.488281 0 28.070312 0.0898438 L 28.160156 0.175781 C 29.742188 0.175781 30.445312 -1.320312 30.800781 -2.464844 L 31.152344 -4.222656 C 31.328125 -5.28125 31.855469 -5.71875 32.296875 -5.71875 C 32.734375 -5.71875 33.085938 -5.191406 32.910156 -4.222656 C 32.734375 -3.167969 32.648438 -2.992188 32.558594 -2.023438 Z M 29.566406 -37.75 C 35.199219 -37.75 38.632812 -33.878906 36.871094 -28.597656 C 36.519531 -33.527344 34.40625 -36.078125 29.566406 -37.75 Z M 29.566406 -37.75 "/></g></g></g><g fill="#383838" fill-opacity="1"><g transform="translate(216.586809, 111.549967)"><g><path d="M 21.382812 -56.496094 C 19.886719 -56.496094 19.09375 -55.527344 18.742188 -54.03125 L 18.65625 -53.503906 C 18.480469 -53.0625 18.214844 -52.796875 17.863281 -52.796875 C 17.6875 -52.796875 17.421875 -52.972656 17.421875 -53.414062 L 17.335938 -54.292969 C 17.335938 -55.789062 16.894531 -56.496094 15.222656 -56.496094 C 13.726562 -56.496094 13.023438 -55.351562 12.847656 -53.941406 L 3.785156 -1.671875 C 3.695312 -0.265625 4.222656 0.617188 5.457031 0.617188 C 7.128906 0.527344 7.917969 -0.265625 8.535156 -2.289062 L 8.710938 -3.078125 C 8.976562 -3.785156 9.238281 -4.222656 9.769531 -4.222656 C 10.03125 -4.222656 10.207031 -3.960938 10.121094 -3.34375 L 10.03125 -2.375 C 9.855469 -0.96875 10.296875 0 11.527344 0 L 11.703125 0 C 13.199219 0 13.902344 -0.96875 14.078125 -2.199219 L 17.246094 -19.269531 C 17.335938 -19.710938 17.511719 -19.886719 17.6875 -19.886719 C 17.863281 -19.886719 17.953125 -19.800781 18.128906 -19.625 L 26.75 -1.582031 C 27.542969 0.0898438 28.421875 0.703125 29.832031 0.703125 C 31.328125 0.703125 32.207031 -0.175781 31.941406 -1.582031 L 31.765625 -2.113281 C 31.679688 -2.640625 31.765625 -3.167969 32.117188 -3.167969 C 32.558594 -3.167969 32.824219 -2.902344 33.085938 -2.375 L 33.527344 -1.582031 C 34.320312 -0.351562 35.375 0.351562 36.605469 0.351562 C 38.453125 0.351562 39.246094 -0.792969 38.71875 -2.113281 L 28.335938 -22 C 28.070312 -22.351562 28.160156 -22.792969 28.511719 -23.230469 L 39.863281 -35.199219 C 40.65625 -35.902344 42.503906 -38.191406 43.03125 -38.984375 C 43.734375 -40.039062 43.558594 -40.917969 43.117188 -41.359375 C 42.765625 -41.710938 42.328125 -41.886719 41.796875 -41.886719 C 41.183594 -41.886719 40.480469 -41.621094 39.949219 -41.09375 C 39.070312 -40.390625 37.75 -38.894531 36.871094 -38.101562 C 36.519531 -37.75 36.253906 -37.574219 36.078125 -37.574219 C 35.992188 -37.574219 35.902344 -37.574219 35.816406 -37.664062 C 35.464844 -37.839844 35.550781 -38.101562 35.902344 -38.632812 L 36.253906 -38.984375 C 37.136719 -40.390625 37.222656 -41.359375 36.519531 -41.710938 C 36.253906 -41.886719 35.902344 -41.976562 35.640625 -41.976562 C 34.671875 -41.976562 33.613281 -41.359375 32.910156 -40.65625 L 19.183594 -25.34375 C 19.007812 -25.167969 18.832031 -25.078125 18.65625 -25.078125 C 18.390625 -25.078125 18.304688 -25.253906 18.304688 -25.695312 L 23.40625 -53.765625 C 23.757812 -55.789062 22.96875 -56.496094 21.382812 -56.496094 Z M 21.382812 -56.496094 "/></g></g></g><g fill="#ffffff" fill-opacity="1"><g transform="translate(255.562488, 111.549967)"><g><path d="M 11 -56.933594 C 9.945312 -56.933594 9.238281 -56.40625 9.152344 -55.789062 L 7.390625 -43.558594 C 7.304688 -43.117188 7.480469 -42.503906 8.535156 -42.503906 C 9.769531 -42.503906 10.03125 -43.824219 10.472656 -43.824219 C 10.734375 -43.824219 10.558594 -42.503906 11.792969 -42.503906 C 12.757812 -42.503906 13.113281 -42.855469 13.199219 -43.648438 L 15.839844 -55.261719 C 16.015625 -56.40625 15.664062 -56.933594 14.785156 -56.933594 C 13.289062 -56.933594 12.847656 -55.878906 12.847656 -55.789062 C 12.757812 -55.613281 12.671875 -55.527344 12.582031 -55.527344 C 12.496094 -55.527344 12.40625 -55.613281 12.40625 -55.789062 C 12.40625 -55.878906 12.40625 -56.933594 11 -56.933594 Z M 11 -56.933594 "/></g></g></g><g fill="#383838" fill-opacity="1"><g transform="translate(268.054674, 111.549967)"><g><path d="M 21.648438 -41.976562 C 13.550781 -41.976562 8.273438 -37.925781 7.304688 -32.296875 C 6.601562 -28.511719 8.097656 -24.640625 11.617188 -22 C 13.375 -20.589844 14.871094 -19.625 16.632812 -18.214844 L 17.953125 -17.246094 C 21.207031 -14.695312 21.910156 -13.199219 21.558594 -11.175781 C 21.207031 -9.238281 19.183594 -8.007812 15.664062 -8.007812 C 12.582031 -8.007812 10.648438 -8.886719 9.769531 -10.648438 C 9.503906 -11.265625 9.0625 -11.792969 8.183594 -11.792969 C 8.097656 -11.792969 7.917969 -11.792969 7.832031 -11.703125 C 6.601562 -11.351562 6.335938 -10.472656 6.421875 -9.503906 C 6.601562 -8.449219 6.6875 -8.535156 7.390625 -7.65625 C 7.742188 -7.214844 7.390625 -6.6875 7.039062 -6.6875 C 6.863281 -6.6875 6.601562 -6.777344 6.421875 -7.039062 C 5.984375 -7.566406 5.71875 -8.007812 5.457031 -8.710938 C 5.28125 -9.238281 4.929688 -10.121094 3.960938 -10.121094 L 3.695312 -10.121094 C 2.375 -9.945312 2.199219 -9.152344 2.199219 -8.183594 C 2.464844 -3.609375 7.480469 0.527344 14.695312 0.527344 C 25.519531 0.527344 30.269531 -3.695312 31.679688 -11.617188 C 32.558594 -16.632812 30.269531 -20.945312 25.605469 -24.109375 C 23.671875 -25.429688 23.144531 -25.871094 21.296875 -27.277344 C 20.238281 -28.070312 17.6875 -29.742188 18.039062 -31.503906 C 18.214844 -32.648438 19.007812 -33.878906 22.351562 -33.792969 C 24.109375 -33.792969 25.519531 -33.175781 26.664062 -32.207031 C 27.277344 -31.855469 27.632812 -31.328125 28.335938 -30.976562 C 28.597656 -30.800781 28.953125 -30.710938 29.304688 -30.710938 C 29.65625 -30.710938 30.007812 -30.800781 30.183594 -30.976562 C 30.710938 -31.152344 31.0625 -31.679688 30.886719 -32.207031 C 30.710938 -32.824219 30.445312 -33.261719 30.183594 -33.703125 C 30.09375 -34.054688 30.09375 -34.320312 30.269531 -34.496094 C 30.359375 -34.582031 30.445312 -34.582031 30.535156 -34.582031 C 30.710938 -34.582031 30.976562 -34.40625 31.152344 -34.144531 C 31.328125 -33.703125 31.589844 -33.261719 32.03125 -33 C 32.382812 -32.734375 32.910156 -32.558594 33.4375 -32.558594 C 33.792969 -32.558594 34.230469 -32.648438 34.582031 -32.910156 C 35.816406 -33.792969 35.640625 -36.167969 34.496094 -37.488281 C 32.734375 -40.304688 27.457031 -41.976562 21.648438 -41.976562 Z M 25.960938 -8.710938 C 27.367188 -14.253906 26.398438 -16.457031 22.878906 -20.238281 C 27.191406 -18.390625 28.863281 -13.550781 25.960938 -8.710938 Z M 25.960938 -8.710938 "/></g></g></g><g fill="#383838" fill-opacity="1"><g transform="translate(103.898435, 199.299961)"><g><path d="M 2.113281 -10.03125 C 3.167969 -3.785156 8.710938 0.527344 18.566406 0.527344 C 30.007812 0.527344 37.3125 -6.246094 39.070312 -16.191406 C 40.480469 -24.023438 36.605469 -27.894531 29.65625 -33.085938 L 27.015625 -34.933594 C 22 -38.277344 19.886719 -40.390625 20.503906 -43.558594 C 21.03125 -46.640625 23.496094 -49.277344 27.457031 -49.277344 C 29.304688 -49.277344 32.296875 -48.75 34.054688 -47.167969 C 35.464844 -45.933594 36.34375 -45.144531 37.136719 -45.144531 C 37.488281 -45.144531 37.839844 -45.320312 38.101562 -45.582031 C 38.632812 -46.023438 38.894531 -46.816406 38.894531 -47.34375 C 38.984375 -48.664062 38.191406 -49.71875 36.34375 -51.390625 C 36.078125 -51.65625 36.429688 -51.917969 36.78125 -51.917969 C 36.871094 -51.917969 36.957031 -51.917969 37.046875 -51.832031 C 38.367188 -50.773438 38.984375 -50.160156 39.863281 -48.574219 C 40.390625 -47.78125 40.917969 -47.429688 41.445312 -47.429688 C 41.710938 -47.429688 41.976562 -47.519531 42.152344 -47.605469 C 42.679688 -47.957031 43.117188 -48.925781 43.03125 -49.453125 C 42.238281 -54.644531 35.375 -58.167969 28.597656 -58.167969 C 27.457031 -58.167969 26.3125 -58.078125 25.253906 -57.902344 C 21.382812 -57.375 18.039062 -55.878906 15.3125 -53.589844 C 12.40625 -51.039062 10.296875 -47.605469 9.589844 -43.382812 C 8.449219 -36.957031 11.441406 -33.4375 18.566406 -28.335938 L 21.03125 -26.574219 C 27.808594 -21.558594 29.304688 -19.449219 28.597656 -15.398438 C 27.894531 -11.527344 24.289062 -8.625 19.269531 -8.625 C 15.222656 -8.625 11.527344 -11.617188 10.824219 -13.902344 C 10.382812 -15.046875 9.414062 -15.488281 8.535156 -15.488281 L 8.007812 -15.488281 C 6.777344 -15.136719 6.6875 -13.726562 6.863281 -12.320312 C 6.953125 -11.265625 8.449219 -8.800781 10.296875 -7.65625 C 10.648438 -7.390625 10.558594 -7.039062 10.121094 -7.039062 C 10.03125 -7.039062 9.769531 -7.039062 9.589844 -7.214844 C 7.480469 -8.359375 6.601562 -10.03125 5.894531 -11.96875 C 5.457031 -13.199219 4.664062 -13.726562 3.871094 -13.726562 L 3.433594 -13.726562 C 2.113281 -13.289062 1.761719 -12.144531 2.113281 -10.03125 Z M 33.96875 -14.871094 C 34.230469 -21.558594 31.765625 -24.992188 27.191406 -28.773438 C 33.703125 -26.046875 35.992188 -21.472656 33.96875 -14.871094 Z M 33.96875 -14.871094 "/></g></g></g><g fill="#383838" fill-opacity="1"><g transform="translate(143.232703, 199.299961)"><g><path d="M 18.214844 -56.054688 C 15.136719 -55.964844 11.792969 -53.941406 11.351562 -51.125 C 10.824219 -48.574219 13.113281 -46.285156 16.191406 -46.199219 C 20.0625 -46.109375 22.703125 -47.78125 23.144531 -50.597656 C 23.757812 -54.03125 21.558594 -56.054688 18.214844 -56.054688 Z M 3.519531 -2.640625 C 3.167969 -0.527344 3.960938 0.175781 5.542969 0.175781 C 7.039062 0.0898438 7.917969 -0.878906 8.273438 -2.375 L 8.273438 -2.816406 C 8.449219 -3.34375 8.800781 -3.609375 9.0625 -3.609375 C 9.238281 -3.609375 9.503906 -3.34375 9.503906 -2.902344 L 9.589844 -2.023438 C 9.589844 -0.617188 10.03125 0.175781 11.703125 0.175781 C 13.199219 0.0898438 13.902344 -0.96875 14.078125 -2.464844 L 20.589844 -40.214844 C 20.765625 -41.621094 20.238281 -42.503906 18.917969 -42.503906 C 17.246094 -42.414062 16.542969 -41.621094 15.925781 -39.597656 L 15.664062 -38.808594 C 15.488281 -38.101562 15.136719 -37.664062 14.695312 -37.664062 C 14.429688 -37.664062 14.167969 -37.925781 14.34375 -38.542969 L 14.429688 -39.511719 C 14.609375 -40.917969 14.167969 -41.886719 12.9375 -41.886719 L 12.757812 -41.886719 C 11.175781 -41.886719 10.472656 -40.917969 10.382812 -39.6875 Z M 3.519531 -2.640625 "/></g></g></g><g fill="#383838" fill-opacity="1"><g transform="translate(161.623895, 199.299961)"><g><path d="M 35.992188 -50.597656 C 35.023438 -50.597656 34.496094 -50.246094 34.054688 -49.542969 C 33.613281 -48.75 33.175781 -47.78125 32.824219 -46.902344 C 31.503906 -43.734375 30.976562 -42.328125 28.773438 -41.796875 C 28.421875 -41.796875 27.984375 -41.710938 27.542969 -41.710938 C 26.3125 -41.710938 24.992188 -41.886719 23.847656 -41.886719 C 14.429688 -41.976562 6.863281 -34.671875 5.191406 -24.992188 C 3.257812 -14.429688 4.398438 -9.589844 11.617188 -4.664062 C 14.167969 -2.902344 15.398438 -2.464844 17.953125 -0.703125 C 21.910156 2.113281 23.054688 3.34375 22.792969 4.75 C 22.527344 6.511719 21.03125 7.65625 17.863281 7.65625 C 14.785156 7.65625 10.382812 5.542969 8.800781 2.199219 C 8.449219 1.496094 8.097656 1.054688 7.304688 1.054688 C 7.128906 1.054688 6.953125 1.054688 6.6875 1.144531 C 5.457031 1.496094 5.015625 2.640625 5.28125 3.519531 C 5.632812 4.75 6.160156 5.71875 6.863281 6.863281 C 7.039062 7.128906 6.777344 7.566406 6.511719 7.566406 C 6.335938 7.566406 6.246094 7.480469 6.160156 7.390625 C 5.71875 6.953125 5.28125 6.511719 5.105469 6.246094 C 4.3125 5.015625 3.609375 4.488281 2.992188 4.488281 C 2.726562 4.488281 2.550781 4.488281 2.289062 4.664062 C 1.144531 5.191406 0.878906 6.160156 0.96875 7.480469 C 1.496094 12.40625 7.480469 16.367188 16.367188 16.367188 C 26.398438 16.457031 32.207031 11.96875 33.613281 4.136719 C 34.230469 0.441406 32.648438 -2.902344 27.984375 -6.421875 C 27.542969 -6.777344 27.71875 -7.214844 28.335938 -7.566406 C 34.582031 -11 37.839844 -19.710938 38.71875 -24.726562 C 39.511719 -29.304688 39.070312 -33.261719 36.078125 -36.429688 C 35.726562 -36.957031 35.816406 -37.398438 36.34375 -37.664062 C 39.335938 -39.160156 40.917969 -41.535156 41.796875 -46.285156 C 41.976562 -47.34375 42.0625 -48.222656 41.976562 -49.191406 C 41.886719 -50.246094 41.183594 -50.863281 40.566406 -50.863281 C 39.511719 -50.863281 38.808594 -49.71875 38.632812 -48.839844 C 38.453125 -47.871094 38.101562 -47.34375 37.664062 -47.34375 C 36.957031 -47.34375 36.871094 -47.78125 37.046875 -48.839844 C 37.3125 -49.984375 36.78125 -50.597656 35.992188 -50.597656 Z M 33.527344 -28.160156 C 32.734375 -33.878906 28.6875 -36.695312 24.199219 -38.015625 C 30.09375 -38.015625 35.199219 -33.4375 33.527344 -28.160156 Z M 28.421875 -23.054688 C 27.277344 -16.542969 24.109375 -12.230469 19.976562 -12.320312 C 15.925781 -12.320312 13.550781 -16.71875 14.695312 -22.96875 C 15.75 -29.128906 18.742188 -33.351562 23.054688 -33.351562 C 27.71875 -33.351562 29.480469 -29.039062 28.421875 -23.054688 Z M 28.421875 4.664062 C 27.894531 8.976562 24.289062 11.792969 19.625 11.792969 C 18.917969 11.792969 18.214844 11.703125 17.421875 11.617188 C 23.054688 10.910156 25.785156 9.414062 28.421875 4.664062 Z M 28.421875 4.664062 "/></g></g></g><g fill="#383838" fill-opacity="1"><g transform="translate(199.11024, 199.299961)"><g><path d="M 16.984375 -54.117188 C 17.246094 -55.613281 16.71875 -56.496094 15.3125 -56.496094 C 13.902344 -56.496094 13.113281 -55.703125 12.847656 -54.207031 L 3.34375 -2.375 C 2.992188 -1.054688 3.257812 0.0898438 4.839844 0.0898438 C 6.511719 0.0898438 7.039062 -0.617188 7.480469 -2.289062 L 8.183594 -4.3125 C 8.359375 -5.105469 8.625 -5.632812 9.238281 -5.632812 C 9.769531 -5.632812 9.855469 -5.105469 9.679688 -4.398438 C 9.503906 -3.433594 9.414062 -3.519531 9.328125 -2.464844 C 9.238281 -1.230469 9.945312 -0.441406 11.351562 -0.441406 L 11.527344 -0.441406 C 12.847656 -0.441406 13.464844 -1.40625 13.726562 -2.464844 L 13.992188 -3.695312 L 19.183594 -31.152344 C 19.359375 -32.03125 19.625 -32.472656 20.414062 -32.824219 C 21.648438 -33.4375 23.054688 -33.703125 24.992188 -33.703125 C 28.773438 -33.703125 30.445312 -31.503906 29.566406 -26.488281 C 27.984375 -17.777344 26.75 -11.085938 24.992188 -2.464844 C 24.726562 -1.144531 24.902344 -0.0898438 26.75 -0.0898438 C 28.246094 -0.0898438 28.953125 -1.496094 29.214844 -2.726562 C 29.566406 -3.871094 29.566406 -3.871094 29.65625 -4.398438 C 29.917969 -5.542969 30.359375 -5.894531 30.886719 -5.894531 C 31.328125 -5.894531 31.589844 -5.367188 31.414062 -4.398438 C 31.238281 -3.433594 31.152344 -3.257812 31.0625 -2.199219 C 30.886719 -0.96875 31.679688 -0.175781 33 -0.0898438 C 34.40625 -0.0898438 34.933594 -1.144531 35.199219 -2.199219 C 35.285156 -2.640625 35.285156 -3.078125 35.375 -3.433594 L 39.773438 -26.925781 C 41.621094 -37.398438 37.046875 -42.152344 30.359375 -42.152344 C 26.3125 -42.152344 23.320312 -40.832031 21.558594 -39.070312 C 21.207031 -38.808594 20.945312 -38.71875 20.765625 -38.71875 C 20.414062 -38.71875 20.238281 -38.984375 20.328125 -39.335938 L 22.878906 -53.765625 C 23.230469 -56.230469 22.617188 -57.023438 21.472656 -57.023438 C 19.800781 -57.023438 19.09375 -56.230469 18.566406 -54.292969 L 18.214844 -53.414062 C 18.039062 -52.710938 17.777344 -52.359375 17.335938 -52.359375 C 16.984375 -52.359375 16.808594 -52.621094 16.894531 -53.238281 Z M 35.285156 -28.863281 C 34.847656 -33.792969 32.824219 -36.34375 27.984375 -38.015625 C 33.527344 -38.015625 36.957031 -34.144531 35.285156 -28.863281 Z M 35.285156 -28.863281 "/></g></g></g><g fill="#383838" fill-opacity="1"><g transform="translate(238.884487, 199.299961)"><g><path d="M 7.039062 -36.253906 C 4.929688 -35.992188 4.664062 -35.550781 4.3125 -34.230469 C 4.136719 -33.261719 4.75 -32.558594 6.601562 -32.558594 L 11.792969 -32.558594 C 12.496094 -32.558594 12.757812 -32.207031 12.671875 -31.589844 L 9.414062 -13.113281 C 7.832031 -4.046875 11.878906 0.527344 19.625 0.527344 C 25.078125 0.527344 28.160156 -0.617188 31.941406 -3.609375 C 33.4375 -4.929688 34.054688 -6.070312 33.261719 -6.953125 C 33 -7.304688 32.558594 -7.480469 32.03125 -7.480469 C 31.238281 -7.480469 30.269531 -7.128906 29.566406 -6.6875 L 29.128906 -6.421875 C 28.953125 -6.246094 28.6875 -6.160156 28.511719 -6.160156 C 27.984375 -6.160156 27.71875 -6.6875 28.421875 -7.304688 L 29.128906 -7.917969 C 30.625 -9.238281 31.238281 -10.382812 30.445312 -11.085938 C 30.183594 -11.351562 29.832031 -11.441406 29.480469 -11.441406 C 28.773438 -11.527344 27.984375 -11.085938 27.277344 -10.558594 C 25.429688 -8.886719 24.289062 -8.359375 22.703125 -8.359375 C 19.800781 -8.359375 19.007812 -10.472656 19.625 -14.078125 L 22.703125 -31.503906 C 22.792969 -32.03125 23.320312 -32.558594 23.933594 -32.558594 L 30.445312 -32.472656 C 31.855469 -32.472656 33.085938 -32.910156 33.261719 -34.054688 C 33.527344 -35.375 32.910156 -35.816406 31.503906 -36.078125 L 30.625 -36.253906 C 29.742188 -36.34375 29.917969 -37.136719 30.886719 -37.136719 L 31.328125 -37.222656 C 32.824219 -37.222656 33.96875 -37.75 34.144531 -38.984375 C 34.40625 -40.304688 33.792969 -41.007812 31.855469 -41.007812 L 25.605469 -41.007812 C 25.167969 -41.007812 24.464844 -41.359375 24.550781 -42.152344 L 25.695312 -48.046875 C 25.960938 -49.367188 25.605469 -50.246094 24.109375 -50.335938 C 22.792969 -50.335938 21.824219 -49.453125 21.558594 -47.871094 L 21.382812 -46.992188 C 21.207031 -46.375 20.945312 -46.109375 20.589844 -46.109375 C 20.152344 -46.109375 20.0625 -46.460938 20.0625 -47.167969 L 20.0625 -48.046875 C 20.238281 -50.070312 19.710938 -50.863281 18.039062 -50.863281 C 16.894531 -50.863281 15.925781 -50.070312 15.664062 -48.664062 L 14.429688 -42.152344 C 14.34375 -41.535156 13.816406 -41.007812 12.9375 -41.007812 L 8.449219 -41.007812 C 6.6875 -41.007812 5.457031 -40.480469 5.191406 -39.246094 C 5.015625 -38.191406 5.71875 -37.574219 7.390625 -37.398438 L 7.917969 -37.398438 C 8.535156 -37.398438 8.800781 -37.222656 8.710938 -36.957031 C 8.625 -36.605469 8.183594 -36.429688 7.566406 -36.34375 Z M 14.785156 -13.113281 C 14.695312 -7.832031 16.542969 -5.457031 21.296875 -3.695312 C 15.75 -3.695312 12.757812 -7.304688 14.785156 -13.113281 Z M 14.785156 -13.113281 "/></g></g></g><g clip-path="url(#98dbe6cf41)"><g clip-path="url(#72c0ecb2c8)"><path fill="#0089e1" d="M 148.523438 137.773438 L 172.273438 137.773438 L 172.273438 157.382812 L 148.523438 157.382812 Z M 148.523438 137.773438 " fill-opacity="1" fill-rule="nonzero"/></g></g><g clip-path="url(#e781d25749)"><path fill="#ffffff" d="M 170.507812 139.683594 C 170.234375 139.691406 169.96875 139.699219 169.699219 139.703125 C 169.742188 139.628906 169.789062 139.554688 169.832031 139.480469 C 169.964844 139.265625 169.621094 139.066406 169.492188 139.285156 C 169.40625 139.421875 169.324219 139.5625 169.242188 139.703125 C 169.152344 139.703125 169.066406 139.703125 168.976562 139.703125 C 168.867188 139.703125 168.757812 139.707031 168.648438 139.71875 C 168.585938 139.628906 168.4375 139.613281 168.34375 139.691406 C 168.316406 139.710938 168.292969 139.734375 168.265625 139.757812 C 168.050781 139.773438 167.847656 139.769531 167.628906 139.757812 C 167.496094 139.753906 167.359375 139.734375 167.226562 139.738281 C 167.21875 139.738281 167.210938 139.742188 167.199219 139.742188 C 167.140625 139.699219 167.054688 139.691406 166.984375 139.730469 C 166.921875 139.761719 166.863281 139.789062 166.800781 139.820312 C 166.683594 139.847656 166.566406 139.871094 166.449219 139.894531 C 166.433594 139.898438 166.414062 139.902344 166.394531 139.90625 C 166.355469 139.90625 166.3125 139.910156 166.277344 139.910156 C 166.039062 139.917969 165.796875 139.910156 165.558594 139.9375 C 165.304688 139.964844 165.046875 140.011719 164.789062 140.027344 C 164.519531 140.046875 164.246094 140.035156 163.976562 140.046875 C 163.707031 140.058594 163.433594 140.085938 163.164062 140.105469 C 162.910156 140.121094 162.910156 140.515625 163.164062 140.496094 C 163.671875 140.460938 164.175781 140.433594 164.683594 140.421875 C 164.757812 140.421875 164.832031 140.417969 164.90625 140.410156 C 164.855469 140.59375 164.800781 140.78125 164.746094 140.964844 C 164.664062 141.234375 164.5625 141.5 164.484375 141.769531 C 164.328125 142.300781 164.199219 142.847656 164.082031 143.390625 C 164.019531 143.675781 163.988281 143.972656 163.945312 144.257812 C 163.945312 144.257812 163.945312 144.261719 163.945312 144.261719 C 163.878906 144.3125 163.8125 144.363281 163.75 144.414062 C 163.667969 144.472656 163.644531 144.539062 163.65625 144.632812 C 163.671875 144.746094 163.6875 144.859375 163.703125 144.972656 C 163.636719 144.96875 163.574219 144.996094 163.527344 145.0625 C 163.1875 145.566406 162.859375 146.074219 162.527344 146.578125 C 162.386719 146.796875 162.230469 147.007812 162.09375 147.226562 C 162.214844 146.773438 162.378906 146.324219 162.527344 145.878906 C 162.613281 145.621094 162.652344 145.34375 162.714844 145.078125 C 162.773438 144.816406 162.859375 144.5625 162.933594 144.308594 C 163.011719 144.046875 163.054688 143.777344 163.113281 143.511719 C 163.167969 143.246094 163.265625 142.988281 163.347656 142.730469 C 163.523438 142.171875 163.714844 141.625 163.894531 141.070312 C 163.964844 140.851562 163.648438 140.734375 163.53125 140.917969 C 163.402344 141.121094 163.269531 141.320312 163.140625 141.527344 C 163.027344 141.707031 162.945312 141.910156 162.851562 142.097656 C 162.765625 142.277344 162.6875 142.453125 162.613281 142.636719 C 162.558594 142.773438 162.5 142.910156 162.445312 143.042969 C 162.4375 143.0625 162.429688 143.082031 162.421875 143.105469 C 162.421875 143.101562 162.394531 143.152344 162.382812 143.171875 C 162.261719 143.390625 162.128906 143.605469 162.019531 143.828125 C 161.917969 144.042969 161.859375 144.285156 161.78125 144.507812 C 161.765625 144.554688 161.746094 144.597656 161.730469 144.644531 C 161.730469 144.648438 161.730469 144.648438 161.726562 144.648438 C 161.65625 144.753906 161.597656 144.871094 161.53125 144.976562 C 161.523438 144.996094 161.511719 145.011719 161.5 145.03125 C 161.621094 144.695312 161.765625 144.367188 161.886719 144.03125 C 161.976562 143.789062 162.03125 143.523438 162.089844 143.273438 C 162.152344 143.015625 162.132812 142.730469 162.152344 142.464844 C 162.152344 142.453125 162.152344 142.441406 162.152344 142.425781 C 162.175781 142.414062 162.203125 142.296875 162.214844 142.273438 C 162.277344 142.109375 162.34375 141.945312 162.410156 141.78125 C 162.503906 141.550781 162.507812 141.277344 162.542969 141.035156 C 162.585938 140.753906 162.695312 140.484375 162.773438 140.210938 C 162.808594 140.101562 162.800781 139.984375 162.800781 139.867188 C 162.804688 139.703125 162.804688 139.542969 162.808594 139.378906 C 162.808594 139.183594 162.539062 139.117188 162.4375 139.28125 C 162.371094 139.394531 162.300781 139.503906 162.230469 139.617188 C 162.203125 139.535156 162.171875 139.457031 162.148438 139.375 C 162.066406 139.105469 162.023438 138.824219 161.933594 138.554688 C 161.898438 138.453125 161.867188 138.347656 161.832031 138.242188 C 161.859375 138.171875 161.886719 138.097656 161.910156 138.027344 C 161.972656 137.847656 162.011719 137.660156 162.0625 137.476562 C 162.082031 137.390625 162.105469 137.304688 162.128906 137.21875 C 162.179688 137.011719 161.867188 136.859375 161.765625 137.066406 C 161.695312 137.207031 161.625 137.347656 161.554688 137.488281 C 161.480469 137.304688 161.40625 137.117188 161.34375 136.929688 C 161.210938 136.539062 161.09375 136.152344 160.992188 135.757812 C 161 135.730469 161.007812 135.707031 161.015625 135.683594 C 161.074219 135.503906 161.132812 135.324219 161.191406 135.144531 C 161.261719 134.933594 160.933594 134.792969 160.832031 134.992188 C 160.828125 135 160.824219 135.003906 160.824219 135.007812 C 160.804688 134.921875 160.789062 134.832031 160.765625 134.75 C 160.726562 134.613281 160.667969 134.476562 160.621094 134.339844 C 160.558594 134.167969 160.503906 133.996094 160.445312 133.824219 C 160.511719 133.625 160.574219 133.421875 160.628906 133.214844 C 160.660156 133.109375 160.6875 133.003906 160.714844 132.898438 C 160.769531 132.691406 160.453125 132.542969 160.351562 132.746094 C 160.296875 132.863281 160.238281 132.976562 160.183594 133.089844 C 160.101562 132.902344 160.011719 132.71875 159.917969 132.53125 C 159.910156 132.511719 159.898438 132.488281 159.886719 132.464844 C 159.875 132.386719 159.835938 132.300781 159.8125 132.226562 C 159.753906 132.054688 159.699219 131.882812 159.644531 131.710938 C 159.589844 131.527344 159.316406 131.515625 159.261719 131.710938 C 159.1875 131.980469 159.132812 132.265625 159.035156 132.53125 C 158.9375 132.800781 158.785156 133.058594 158.703125 133.332031 C 158.621094 133.613281 158.554688 133.902344 158.445312 134.175781 C 158.375 134.359375 158.300781 134.546875 158.226562 134.734375 C 158.214844 134.765625 158.152344 134.90625 158.199219 134.808594 C 158.175781 134.863281 158.148438 134.921875 158.125 134.976562 C 157.996094 135.265625 157.859375 135.539062 157.78125 135.84375 C 157.703125 136.140625 157.625 136.425781 157.519531 136.714844 C 157.414062 137.003906 157.3125 137.296875 157.214844 137.589844 C 157.117188 137.886719 157.042969 138.175781 156.96875 138.484375 C 156.890625 138.824219 156.769531 139.144531 156.648438 139.476562 C 156.628906 139.53125 156.613281 139.585938 156.59375 139.640625 C 156.578125 139.679688 156.5625 139.714844 156.542969 139.75 C 156.441406 139.945312 156.3125 140.128906 156.195312 140.3125 C 156.183594 140.316406 156.171875 140.320312 156.160156 140.324219 C 156.089844 140.339844 156.023438 140.355469 155.953125 140.371094 C 155.976562 140.300781 156 140.230469 156.023438 140.160156 C 156.089844 139.96875 155.828125 139.835938 155.695312 139.96875 C 155.523438 140.136719 155.339844 140.296875 155.183594 140.476562 C 155.128906 140.484375 155.074219 140.488281 155.019531 140.492188 C 154.765625 140.511719 154.515625 140.5 154.261719 140.515625 C 154.191406 140.484375 154.097656 140.488281 154.03125 140.535156 C 153.808594 140.5625 153.589844 140.597656 153.371094 140.628906 C 153.359375 140.625 153.335938 140.632812 153.320312 140.632812 C 153.234375 140.636719 153.148438 140.640625 153.0625 140.644531 C 153.007812 140.648438 152.957031 140.652344 152.90625 140.652344 C 152.996094 140.484375 152.804688 140.289062 152.632812 140.390625 C 152.4375 140.5 152.246094 140.609375 152.054688 140.722656 C 151.960938 140.734375 151.863281 140.746094 151.769531 140.753906 C 151.535156 140.78125 151.300781 140.804688 151.066406 140.828125 C 151.070312 140.820312 151.074219 140.816406 151.078125 140.808594 C 151.226562 140.601562 150.882812 140.40625 150.738281 140.613281 C 150.671875 140.703125 150.605469 140.796875 150.535156 140.886719 C 150.414062 140.902344 150.289062 140.914062 150.164062 140.929688 C 149.863281 140.964844 149.554688 141.015625 149.257812 141.078125 C 148.988281 141.132812 148.726562 141.238281 148.464844 141.316406 C 148.292969 141.371094 148.277344 141.582031 148.417969 141.675781 C 148.625 141.816406 148.828125 141.972656 149.042969 142.101562 C 149.265625 142.234375 149.507812 142.351562 149.738281 142.460938 C 149.976562 142.574219 150.230469 142.652344 150.472656 142.757812 C 150.460938 142.753906 150.519531 142.78125 150.539062 142.796875 C 150.613281 142.835938 150.6875 142.878906 150.761719 142.917969 C 150.816406 142.953125 150.875 142.984375 150.929688 143.019531 C 150.894531 143.085938 150.855469 143.152344 150.816406 143.21875 C 150.703125 143.410156 150.96875 143.613281 151.128906 143.457031 C 151.203125 143.382812 151.277344 143.308594 151.351562 143.234375 C 151.761719 143.425781 152.195312 143.589844 152.632812 143.710938 C 152.636719 143.714844 152.640625 143.714844 152.644531 143.714844 C 152.648438 143.71875 152.648438 143.71875 152.652344 143.71875 C 152.726562 143.753906 152.796875 143.785156 152.871094 143.816406 C 153.011719 143.882812 153.15625 143.945312 153.300781 144.011719 C 153.492188 144.101562 153.679688 144.199219 153.867188 144.292969 C 153.828125 144.414062 153.789062 144.53125 153.75 144.648438 C 153.671875 144.871094 153.992188 144.976562 154.109375 144.800781 C 154.175781 144.703125 154.242188 144.605469 154.308594 144.507812 C 154.65625 144.671875 155.011719 144.824219 155.367188 144.96875 C 155.328125 145.195312 155.289062 145.429688 155.222656 145.644531 C 155.125 145.949219 154.996094 146.238281 154.9375 146.546875 C 154.8125 147.199219 154.691406 147.847656 154.550781 148.496094 C 154.480469 148.804688 154.410156 149.113281 154.339844 149.421875 C 154.273438 149.699219 154.265625 149.984375 154.214844 150.265625 C 154.160156 150.550781 154.066406 150.828125 154.011719 151.113281 C 153.953125 151.429688 153.890625 151.742188 153.835938 152.058594 C 153.71875 152.710938 153.636719 153.371094 153.527344 154.023438 C 153.519531 154.074219 153.507812 154.128906 153.5 154.179688 C 153.484375 154.28125 153.539062 154.375 153.621094 154.410156 C 153.605469 154.476562 153.589844 154.542969 153.574219 154.609375 C 153.527344 154.796875 153.480469 154.980469 153.433594 155.164062 C 153.367188 155.414062 153.722656 155.5 153.8125 155.269531 C 153.878906 155.105469 153.945312 154.945312 154.011719 154.78125 C 154.039062 154.714844 154.066406 154.644531 154.089844 154.578125 C 154.09375 154.578125 154.097656 154.574219 154.097656 154.570312 C 154.125 154.546875 154.144531 154.507812 154.164062 154.480469 C 154.289062 154.3125 154.414062 154.148438 154.53125 153.976562 C 154.613281 153.859375 154.648438 153.710938 154.699219 153.582031 C 154.730469 153.507812 154.757812 153.433594 154.785156 153.359375 C 154.886719 153.242188 154.984375 153.121094 155.082031 152.992188 C 155.28125 152.726562 155.480469 152.457031 155.671875 152.179688 C 155.730469 152.09375 155.789062 152.007812 155.847656 151.925781 C 155.863281 151.90625 155.878906 151.882812 155.890625 151.863281 C 156.019531 151.71875 156.140625 151.566406 156.261719 151.417969 C 156.46875 151.171875 156.621094 150.890625 156.789062 150.613281 C 156.941406 150.363281 157.128906 150.128906 157.300781 149.890625 C 157.441406 149.699219 157.582031 149.511719 157.722656 149.324219 C 157.8125 149.347656 157.925781 149.3125 157.964844 149.191406 C 158.003906 149.074219 158.042969 148.957031 158.085938 148.839844 C 158.183594 148.707031 158.28125 148.578125 158.382812 148.445312 C 158.5 148.289062 158.621094 148.132812 158.738281 147.972656 C 158.742188 147.972656 158.742188 147.96875 158.742188 147.96875 C 158.757812 147.949219 158.769531 147.933594 158.785156 147.914062 C 158.851562 147.832031 158.914062 147.75 158.980469 147.667969 C 159.0625 147.5625 159.140625 147.445312 159.234375 147.347656 C 159.363281 147.214844 159.503906 147.089844 159.640625 146.964844 C 159.707031 147.039062 159.773438 147.109375 159.84375 147.183594 C 159.898438 147.246094 159.957031 147.308594 160.015625 147.371094 C 160.023438 147.378906 160.027344 147.386719 160.035156 147.394531 C 160.03125 147.386719 160.039062 147.390625 160.054688 147.414062 C 160.058594 147.414062 160.058594 147.417969 160.058594 147.417969 C 160.058594 147.417969 160.058594 147.417969 160.054688 147.414062 C 160.234375 147.65625 160.398438 147.929688 160.609375 148.144531 C 160.84375 148.382812 161.070312 148.625 161.300781 148.863281 C 161.289062 148.902344 161.277344 148.941406 161.269531 148.976562 C 161.21875 149.164062 161.480469 149.304688 161.597656 149.179688 C 161.6875 149.273438 161.777344 149.367188 161.871094 149.464844 C 162.300781 149.910156 162.75 150.339844 163.195312 150.773438 C 163.417969 150.988281 163.632812 151.207031 163.84375 151.425781 C 164.0625 151.652344 164.289062 151.839844 164.53125 152.035156 C 164.800781 152.253906 165.0625 152.480469 165.324219 152.707031 C 165.566406 152.917969 165.859375 153.082031 166.125 153.261719 C 166.265625 153.355469 166.472656 153.195312 166.417969 153.039062 C 166.328125 152.777344 166.222656 152.515625 166.152344 152.253906 C 166.078125 151.984375 166.039062 151.707031 165.953125 151.441406 C 165.867188 151.171875 165.761719 150.90625 165.679688 150.632812 C 165.597656 150.351562 165.515625 150.066406 165.425781 149.789062 C 165.332031 149.507812 165.242188 149.234375 165.175781 148.949219 C 165.109375 148.660156 165.046875 148.375 164.980469 148.085938 C 164.914062 147.792969 164.839844 147.519531 164.742188 147.234375 C 164.648438 146.953125 164.554688 146.671875 164.464844 146.390625 C 164.359375 146.066406 164.269531 145.738281 164.179688 145.410156 C 164.117188 145.171875 164.089844 144.917969 164.058594 144.667969 C 164.234375 144.53125 164.40625 144.394531 164.589844 144.265625 C 164.808594 144.113281 165.054688 143.988281 165.277344 143.832031 C 165.503906 143.675781 165.714844 143.496094 165.933594 143.332031 C 165.933594 143.332031 165.933594 143.332031 165.9375 143.332031 C 165.957031 143.328125 165.988281 143.304688 166.003906 143.296875 C 166.082031 143.253906 166.160156 143.214844 166.238281 143.171875 C 166.371094 143.101562 166.511719 143.039062 166.640625 142.960938 C 166.867188 142.824219 167.070312 142.636719 167.285156 142.476562 C 167.5 142.316406 167.714844 142.160156 167.933594 142.003906 C 168.152344 141.851562 168.386719 141.714844 168.609375 141.566406 C 168.835938 141.414062 169.046875 141.222656 169.265625 141.050781 C 169.273438 141.042969 169.28125 141.035156 169.292969 141.03125 C 169.296875 141.027344 169.296875 141.027344 169.304688 141.023438 C 169.375 140.984375 169.441406 140.9375 169.511719 140.894531 C 169.664062 140.800781 169.820312 140.714844 169.96875 140.613281 C 170.082031 140.535156 170.183594 140.429688 170.289062 140.335938 C 170.410156 140.230469 170.527344 140.125 170.644531 140.019531 C 170.773438 139.90625 170.671875 139.679688 170.507812 139.683594 Z M 168.984375 140.09375 C 168.871094 140.246094 168.761719 140.394531 168.660156 140.554688 C 168.667969 140.402344 168.671875 140.253906 168.675781 140.105469 C 168.734375 140.101562 168.792969 140.097656 168.855469 140.09375 C 168.898438 140.09375 168.941406 140.09375 168.984375 140.09375 Z M 167.777344 140.167969 C 167.621094 140.300781 167.53125 140.515625 167.421875 140.6875 C 167.3125 140.867188 167.230469 141.03125 167.15625 141.226562 C 167.140625 141.265625 167.128906 141.304688 167.113281 141.339844 C 167.132812 141.207031 167.148438 141.070312 167.167969 140.9375 C 167.167969 140.9375 167.167969 140.933594 167.167969 140.933594 C 167.167969 140.933594 167.167969 140.933594 167.167969 140.9375 C 167.167969 140.933594 167.167969 140.929688 167.167969 140.925781 C 167.171875 140.917969 167.171875 140.910156 167.175781 140.90625 C 167.175781 140.886719 167.179688 140.871094 167.179688 140.855469 C 167.203125 140.738281 167.222656 140.625 167.242188 140.507812 C 167.265625 140.386719 167.285156 140.265625 167.308594 140.144531 C 167.308594 140.144531 167.308594 140.140625 167.308594 140.140625 C 167.339844 140.140625 167.371094 140.136719 167.382812 140.136719 C 167.511719 140.144531 167.644531 140.160156 167.777344 140.167969 Z M 166.921875 140.210938 C 166.925781 140.207031 166.925781 140.207031 166.929688 140.207031 C 166.925781 140.210938 166.921875 140.210938 166.917969 140.210938 C 166.921875 140.210938 166.921875 140.210938 166.921875 140.210938 Z M 165.117188 141.097656 C 165.195312 140.851562 165.261719 140.605469 165.332031 140.355469 C 165.339844 140.355469 165.347656 140.355469 165.359375 140.351562 C 165.585938 140.324219 165.804688 140.316406 166.035156 140.3125 C 166.148438 140.308594 166.257812 140.300781 166.363281 140.292969 C 166.296875 140.382812 166.226562 140.472656 166.15625 140.5625 C 165.972656 140.804688 165.828125 141.082031 165.664062 141.335938 C 165.285156 141.9375 164.90625 142.539062 164.539062 143.144531 C 164.578125 142.996094 164.613281 142.847656 164.652344 142.703125 C 164.785156 142.15625 164.949219 141.632812 165.117188 141.097656 Z M 161.972656 140.027344 C 161.941406 140.078125 161.914062 140.128906 161.882812 140.175781 C 161.796875 140.308594 161.699219 140.441406 161.628906 140.582031 C 161.527344 140.785156 161.433594 140.992188 161.335938 141.195312 C 161.199219 141.480469 161.023438 141.746094 160.910156 142.042969 C 160.828125 142.253906 160.746094 142.464844 160.667969 142.679688 C 160.667969 142.679688 160.667969 142.675781 160.667969 142.675781 C 160.667969 142.675781 160.667969 142.679688 160.667969 142.679688 C 160.652344 142.722656 160.648438 142.710938 160.65625 142.695312 C 160.644531 142.710938 160.632812 142.734375 160.625 142.75 C 160.558594 142.855469 160.496094 142.960938 160.433594 143.066406 C 160.351562 143.203125 160.269531 143.328125 160.210938 143.476562 C 160.132812 143.679688 160.046875 143.882812 159.976562 144.089844 C 159.972656 144.089844 159.972656 144.089844 159.972656 144.089844 C 159.953125 144.121094 159.9375 144.15625 159.921875 144.191406 C 159.859375 144.300781 159.800781 144.414062 159.742188 144.527344 C 159.675781 144.652344 159.609375 144.773438 159.542969 144.898438 C 159.390625 145.179688 159.238281 145.464844 159.089844 145.75 C 159.105469 145.703125 159.117188 145.65625 159.132812 145.613281 C 159.191406 145.441406 159.253906 145.277344 159.324219 145.113281 C 159.378906 144.984375 159.433594 144.855469 159.484375 144.730469 C 159.496094 144.703125 159.507812 144.675781 159.519531 144.648438 C 159.476562 144.753906 159.527344 144.632812 159.535156 144.613281 C 159.628906 144.394531 159.726562 144.179688 159.816406 143.964844 C 159.910156 143.746094 159.960938 143.507812 160.03125 143.28125 C 160.136719 142.929688 160.316406 142.601562 160.414062 142.242188 C 160.449219 142.101562 160.488281 141.960938 160.527344 141.820312 C 160.539062 141.773438 160.558594 141.722656 160.566406 141.675781 C 160.566406 141.675781 160.566406 141.675781 160.566406 141.671875 C 160.710938 141.476562 160.84375 141.246094 160.960938 141.03125 C 161.0625 140.847656 161.113281 140.625 161.183594 140.425781 C 161.242188 140.253906 161.296875 140.078125 161.347656 139.902344 C 161.441406 139.570312 161.523438 139.234375 161.617188 138.902344 C 161.664062 139.074219 161.703125 139.242188 161.75 139.414062 C 161.800781 139.621094 161.890625 139.828125 161.972656 140.027344 Z M 160.863281 136.746094 C 161.007812 137.179688 161.175781 137.601562 161.332031 138.03125 C 161.28125 138.1875 161.226562 138.34375 161.171875 138.5 C 161.171875 138.507812 161.167969 138.511719 161.167969 138.515625 C 161.171875 138.511719 161.171875 138.507812 161.175781 138.503906 C 161.171875 138.507812 161.167969 138.515625 161.164062 138.523438 C 161.160156 138.53125 161.15625 138.539062 161.15625 138.535156 C 161.152344 138.546875 161.148438 138.554688 161.144531 138.566406 C 161.09375 138.65625 161.042969 138.75 160.992188 138.839844 C 160.917969 138.980469 160.832031 139.117188 160.773438 139.261719 C 160.699219 139.449219 160.628906 139.636719 160.558594 139.824219 C 160.542969 139.859375 160.53125 139.898438 160.515625 139.9375 C 160.515625 139.941406 160.507812 139.960938 160.5 139.976562 C 160.496094 139.984375 160.492188 139.996094 160.488281 140 C 160.46875 140.039062 160.449219 140.078125 160.433594 140.117188 C 160.34375 140.296875 160.253906 140.476562 160.171875 140.660156 C 160.050781 140.917969 159.949219 141.1875 159.816406 141.441406 C 159.71875 141.628906 159.617188 141.8125 159.519531 142 C 159.453125 142.121094 159.425781 142.230469 159.394531 142.367188 C 159.371094 142.480469 159.347656 142.589844 159.320312 142.703125 C 159.308594 142.761719 159.257812 142.878906 159.273438 142.933594 C 159.257812 142.957031 159.246094 142.984375 159.234375 143.011719 C 159.183594 143.121094 159.132812 143.226562 159.082031 143.332031 C 158.929688 143.644531 158.753906 143.933594 158.574219 144.230469 C 158.421875 144.480469 158.3125 144.765625 158.195312 145.03125 C 158.121094 145.203125 158.066406 145.382812 158.003906 145.558594 C 157.972656 145.640625 157.941406 145.722656 157.914062 145.804688 C 157.902344 145.828125 157.890625 145.851562 157.878906 145.875 C 157.726562 146.183594 157.574219 146.488281 157.402344 146.785156 C 157.316406 146.933594 157.203125 147.085938 157.144531 147.246094 C 157.078125 147.417969 157.03125 147.601562 156.972656 147.777344 C 156.953125 147.84375 156.90625 147.925781 156.902344 147.996094 C 156.886719 148.027344 156.871094 148.0625 156.855469 148.09375 C 156.773438 148.28125 156.691406 148.472656 156.601562 148.65625 C 156.480469 148.914062 156.316406 149.148438 156.191406 149.40625 C 156.050781 149.699219 155.925781 149.996094 155.78125 150.285156 C 155.613281 150.605469 155.460938 150.925781 155.324219 151.257812 C 155.285156 151.355469 155.246094 151.449219 155.207031 151.542969 C 155.203125 151.550781 155.199219 151.554688 155.199219 151.5625 C 155.195312 151.5625 155.191406 151.582031 155.179688 151.601562 C 155.085938 151.792969 154.996094 151.984375 154.90625 152.175781 C 154.773438 152.449219 154.632812 152.714844 154.507812 152.992188 C 154.484375 153.042969 154.464844 153.097656 154.441406 153.152344 C 154.421875 153.175781 154.398438 153.203125 154.378906 153.226562 C 154.523438 152.910156 154.589844 152.578125 154.703125 152.25 C 154.816406 151.945312 154.957031 151.648438 155.074219 151.34375 C 155.207031 150.980469 155.328125 150.621094 155.4375 150.25 C 155.460938 150.175781 155.496094 150.09375 155.503906 150.019531 C 155.527344 149.976562 155.546875 149.933594 155.566406 149.890625 C 155.652344 149.707031 155.746094 149.527344 155.828125 149.339844 C 155.960938 149.035156 155.992188 148.691406 156.121094 148.386719 C 156.199219 148.195312 156.28125 148.011719 156.359375 147.820312 C 156.359375 147.816406 156.359375 147.816406 156.363281 147.8125 C 156.382812 147.769531 156.398438 147.730469 156.417969 147.691406 C 156.46875 147.578125 156.523438 147.464844 156.574219 147.351562 C 156.636719 147.214844 156.695312 147.085938 156.734375 146.941406 C 156.765625 146.824219 156.792969 146.703125 156.824219 146.585938 C 156.84375 146.503906 156.886719 146.402344 156.894531 146.316406 C 156.917969 146.292969 156.9375 146.253906 156.953125 146.226562 C 157.023438 146.121094 157.09375 146.015625 157.164062 145.910156 C 157.246094 145.789062 157.324219 145.675781 157.378906 145.535156 C 157.460938 145.328125 157.542969 145.121094 157.621094 144.910156 C 157.625 144.902344 157.628906 144.894531 157.628906 144.890625 C 157.636719 144.871094 157.648438 144.847656 157.65625 144.824219 C 157.703125 144.714844 157.75 144.605469 157.796875 144.496094 C 157.945312 144.152344 158.078125 143.796875 158.207031 143.445312 C 158.445312 142.8125 158.679688 142.179688 158.9375 141.554688 C 158.980469 141.453125 159.019531 141.351562 159.0625 141.246094 C 159.066406 141.242188 159.078125 141.214844 159.082031 141.203125 C 159.089844 141.1875 159.09375 141.171875 159.097656 141.167969 C 159.191406 140.96875 159.28125 140.765625 159.375 140.566406 C 159.441406 140.421875 159.488281 140.269531 159.542969 140.121094 C 159.582031 140.007812 159.621094 139.898438 159.660156 139.789062 C 159.667969 139.769531 159.675781 139.75 159.679688 139.734375 C 159.679688 139.730469 159.683594 139.730469 159.683594 139.730469 C 159.683594 139.726562 159.683594 139.726562 159.683594 139.722656 C 159.683594 139.722656 159.683594 139.722656 159.683594 139.726562 C 159.683594 139.722656 159.6875 139.71875 159.6875 139.714844 C 159.839844 139.363281 159.988281 139.015625 160.117188 138.65625 C 160.242188 138.296875 160.34375 137.9375 160.445312 137.570312 C 160.546875 137.195312 160.65625 136.824219 160.773438 136.449219 C 160.800781 136.546875 160.832031 136.648438 160.863281 136.746094 Z M 157.527344 147.347656 C 157.527344 147.355469 157.523438 147.359375 157.523438 147.363281 C 157.523438 147.359375 157.527344 147.351562 157.527344 147.347656 Z M 157.523438 147.367188 C 157.515625 147.386719 157.503906 147.394531 157.523438 147.367188 Z M 155.503906 150.019531 C 155.5 150.054688 155.484375 150.066406 155.503906 150.019531 Z M 160.417969 135.019531 C 160.457031 135.199219 160.496094 135.378906 160.539062 135.558594 C 160.527344 135.578125 160.515625 135.601562 160.503906 135.621094 C 160.421875 135.785156 160.363281 135.953125 160.296875 136.125 C 160.253906 136.25 160.207031 136.371094 160.164062 136.496094 C 160.132812 136.519531 160.109375 136.585938 160.089844 136.617188 C 159.976562 136.796875 159.851562 136.976562 159.75 137.164062 C 159.539062 137.550781 159.367188 137.960938 159.191406 138.363281 C 159.113281 138.535156 159.03125 138.679688 158.929688 138.839844 C 158.828125 138.996094 158.710938 139.148438 158.636719 139.320312 C 158.457031 139.738281 158.273438 140.160156 158.089844 140.582031 C 157.945312 140.914062 157.722656 141.207031 157.558594 141.53125 C 157.355469 141.9375 157.132812 142.332031 156.910156 142.730469 C 156.777344 142.96875 156.660156 143.21875 156.542969 143.464844 C 156.550781 143.441406 156.5625 143.414062 156.558594 143.390625 C 156.5625 143.382812 156.566406 143.375 156.570312 143.371094 C 156.601562 143.300781 156.628906 143.234375 156.660156 143.164062 C 156.753906 142.949219 156.851562 142.738281 156.9375 142.523438 C 157.003906 142.367188 157.066406 142.214844 157.128906 142.0625 C 157.144531 142.023438 157.160156 141.984375 157.175781 141.945312 C 157.1875 141.933594 157.191406 141.917969 157.199219 141.902344 C 157.277344 141.769531 157.347656 141.632812 157.417969 141.5 C 157.472656 141.398438 157.539062 141.296875 157.578125 141.191406 C 157.664062 140.953125 157.742188 140.691406 157.796875 140.441406 C 157.800781 140.4375 157.800781 140.4375 157.800781 140.433594 C 157.828125 140.378906 157.855469 140.324219 157.882812 140.265625 C 157.957031 140.117188 158.03125 139.964844 158.105469 139.816406 C 158.207031 139.613281 158.296875 139.40625 158.390625 139.203125 C 158.488281 138.984375 158.554688 138.773438 158.621094 138.542969 C 158.652344 138.429688 158.707031 138.3125 158.722656 138.195312 C 158.726562 138.183594 158.734375 138.175781 158.738281 138.164062 C 158.769531 138.097656 158.804688 138.03125 158.835938 137.964844 C 158.941406 137.75 159.050781 137.542969 159.140625 137.320312 C 159.230469 137.105469 159.328125 136.894531 159.402344 136.675781 C 159.488281 136.433594 159.554688 136.1875 159.644531 135.945312 C 159.820312 135.46875 160.023438 134.996094 160.199219 134.515625 C 160.210938 134.488281 160.222656 134.457031 160.234375 134.425781 C 160.304688 134.621094 160.375 134.816406 160.417969 135.019531 Z M 157.203125 141.058594 C 157.195312 141.089844 157.1875 141.085938 157.203125 141.058594 Z M 157.792969 137.121094 C 157.898438 136.835938 158 136.554688 158.078125 136.261719 C 158.105469 136.15625 158.136719 136.050781 158.164062 135.949219 C 158.179688 135.882812 158.214844 135.800781 158.21875 135.734375 C 158.21875 135.730469 158.21875 135.730469 158.21875 135.726562 C 158.226562 135.714844 158.234375 135.699219 158.238281 135.683594 C 158.277344 135.59375 158.316406 135.507812 158.355469 135.417969 C 158.613281 134.84375 158.84375 134.269531 159.019531 133.664062 C 159.117188 133.332031 159.257812 133.019531 159.390625 132.699219 C 159.421875 132.628906 159.449219 132.558594 159.46875 132.484375 C 159.492188 132.539062 159.511719 132.59375 159.535156 132.644531 C 159.605469 132.796875 159.683594 132.945312 159.757812 133.097656 C 159.792969 133.171875 159.828125 133.246094 159.867188 133.320312 C 159.875 133.335938 159.878906 133.351562 159.886719 133.363281 C 159.839844 133.285156 159.875 133.335938 159.882812 133.371094 C 159.902344 133.433594 159.921875 133.496094 159.941406 133.5625 C 159.863281 133.695312 159.773438 133.828125 159.6875 133.960938 C 159.476562 134.300781 159.292969 134.652344 159.101562 135 C 158.878906 135.414062 158.671875 135.847656 158.425781 136.246094 C 158.300781 136.449219 158.152344 136.644531 158.019531 136.839844 C 157.898438 137.011719 157.804688 137.203125 157.703125 137.386719 C 157.703125 137.386719 157.703125 137.390625 157.703125 137.390625 C 157.730469 137.300781 157.761719 137.210938 157.792969 137.121094 Z M 155.949219 140.765625 C 155.921875 140.816406 155.894531 140.867188 155.867188 140.917969 C 155.78125 141.085938 155.671875 141.242188 155.5625 141.398438 C 155.597656 141.308594 155.632812 141.222656 155.671875 141.132812 C 155.71875 141.019531 155.761719 140.90625 155.804688 140.792969 C 155.851562 140.78125 155.898438 140.773438 155.949219 140.765625 Z M 154.800781 142.332031 C 154.804688 142.324219 154.808594 142.320312 154.800781 142.332031 Z M 154.835938 140.890625 C 154.746094 141 154.65625 141.105469 154.5625 141.210938 C 154.453125 141.335938 154.335938 141.460938 154.230469 141.589844 C 154.140625 141.699219 154.070312 141.828125 153.992188 141.945312 C 153.945312 142.023438 153.894531 142.101562 153.84375 142.179688 C 153.832031 142.199219 153.804688 142.226562 153.796875 142.25 C 153.777344 142.273438 153.757812 142.296875 153.738281 142.320312 C 153.886719 142.023438 154.007812 141.714844 154.121094 141.398438 C 154.179688 141.238281 154.238281 141.074219 154.292969 140.910156 C 154.332031 140.910156 154.367188 140.90625 154.402344 140.90625 C 154.546875 140.898438 154.691406 140.894531 154.835938 140.890625 Z M 154.53125 141.84375 C 154.535156 141.835938 154.535156 141.835938 154.53125 141.84375 Z M 154.519531 141.859375 C 154.515625 141.863281 154.515625 141.863281 154.511719 141.867188 C 154.515625 141.863281 154.515625 141.859375 154.519531 141.859375 Z M 153.339844 141.023438 C 153.375 141.019531 153.40625 141.015625 153.4375 141.011719 C 153.210938 141.199219 152.980469 141.390625 152.753906 141.578125 C 152.542969 141.753906 152.316406 141.917969 152.113281 142.105469 C 152.101562 142.113281 152.089844 142.121094 152.082031 142.128906 C 152.023438 142.171875 151.964844 142.210938 151.90625 142.253906 C 152.121094 141.957031 152.335938 141.652344 152.519531 141.335938 C 152.574219 141.242188 152.628906 141.152344 152.679688 141.058594 C 152.898438 141.042969 153.121094 141.039062 153.339844 141.023438 Z M 150.90625 141.230469 C 151.027344 141.21875 151.148438 141.207031 151.269531 141.195312 C 151.015625 141.339844 150.75 141.46875 150.503906 141.625 C 150.519531 141.601562 150.535156 141.578125 150.550781 141.550781 C 150.617188 141.449219 150.6875 141.351562 150.757812 141.25 C 150.808594 141.246094 150.859375 141.238281 150.90625 141.230469 Z M 148.949219 141.570312 C 149.078125 141.53125 149.207031 141.492188 149.332031 141.460938 C 149.597656 141.394531 149.882812 141.394531 150.144531 141.324219 C 150.03125 141.351562 150.171875 141.320312 150.203125 141.316406 C 150.214844 141.316406 150.222656 141.3125 150.234375 141.3125 C 150.226562 141.328125 150.214844 141.339844 150.207031 141.355469 C 150.058594 141.578125 149.925781 141.8125 149.789062 142.042969 C 149.777344 142.039062 149.769531 142.035156 149.757812 142.03125 C 149.597656 141.945312 149.429688 141.867188 149.269531 141.777344 C 149.160156 141.714844 149.054688 141.644531 148.949219 141.570312 Z M 150.734375 142.453125 C 150.589844 142.371094 150.433594 142.308594 150.273438 142.25 C 150.535156 142.078125 150.796875 141.910156 151.074219 141.761719 C 151.445312 141.558594 151.792969 141.328125 152.15625 141.113281 C 152.160156 141.109375 152.167969 141.105469 152.171875 141.105469 C 152.179688 141.101562 152.183594 141.101562 152.1875 141.101562 C 152.09375 141.257812 152 141.414062 151.898438 141.570312 C 151.675781 141.90625 151.421875 142.21875 151.207031 142.554688 C 151.179688 142.597656 151.15625 142.640625 151.128906 142.683594 C 150.996094 142.605469 150.863281 142.527344 150.734375 142.453125 Z M 152.027344 143.101562 C 151.976562 143.078125 151.921875 143.054688 151.871094 143.03125 C 151.796875 143 151.726562 142.96875 151.652344 142.933594 C 151.679688 142.910156 151.699219 142.890625 151.679688 142.902344 C 151.894531 142.738281 152.121094 142.585938 152.335938 142.425781 C 152.789062 142.085938 153.210938 141.703125 153.640625 141.34375 C 153.675781 141.3125 153.714844 141.285156 153.75 141.257812 C 153.6875 141.425781 153.625 141.597656 153.558594 141.765625 C 153.527344 141.851562 153.492188 141.933594 153.460938 142.019531 C 153.488281 141.945312 153.464844 142 153.449219 142.035156 C 153.417969 142.089844 153.386719 142.144531 153.359375 142.199219 C 153.269531 142.363281 153.171875 142.527344 153.09375 142.695312 C 152.992188 142.917969 152.898438 143.140625 152.800781 143.359375 C 152.566406 143.261719 152.316406 143.195312 152.074219 143.117188 C 152.058594 143.113281 152.042969 143.105469 152.027344 143.101562 Z M 153.179688 143.53125 C 153.546875 143.148438 153.933594 142.765625 154.222656 142.324219 C 154.320312 142.167969 154.429688 142.015625 154.523438 141.859375 C 154.523438 141.855469 154.523438 141.851562 154.527344 141.851562 C 154.535156 141.84375 154.539062 141.832031 154.546875 141.824219 C 154.609375 141.753906 154.671875 141.683594 154.734375 141.613281 C 154.941406 141.378906 155.140625 141.140625 155.339844 140.898438 C 155.34375 140.898438 155.34375 140.894531 155.347656 140.890625 C 155.347656 140.890625 155.347656 140.890625 155.347656 140.894531 C 155.214844 141.203125 155.078125 141.507812 154.972656 141.828125 C 154.914062 141.996094 154.835938 142.167969 154.792969 142.34375 C 154.792969 142.34375 154.792969 142.34375 154.792969 142.347656 C 154.773438 142.378906 154.753906 142.414062 154.738281 142.445312 C 154.679688 142.550781 154.625 142.652344 154.566406 142.757812 C 154.402344 143.058594 154.257812 143.363281 154.105469 143.671875 C 154.066406 143.753906 154.03125 143.839844 153.996094 143.925781 C 153.726562 143.792969 153.453125 143.65625 153.179688 143.53125 Z M 154.632812 144.226562 C 154.597656 144.210938 154.566406 144.195312 154.53125 144.179688 C 154.648438 144.007812 154.722656 143.800781 154.8125 143.609375 C 154.984375 143.25 155.226562 142.929688 155.390625 142.566406 C 155.480469 142.367188 155.550781 142.144531 155.667969 141.960938 C 155.804688 141.75 155.964844 141.554688 156.09375 141.339844 C 156.214844 141.132812 156.316406 140.914062 156.425781 140.703125 C 156.4375 140.6875 156.445312 140.671875 156.453125 140.65625 C 156.523438 140.640625 156.597656 140.625 156.667969 140.605469 C 156.734375 140.59375 156.792969 140.535156 156.808594 140.46875 C 156.867188 140.222656 156.910156 139.964844 156.984375 139.71875 C 157.085938 139.503906 157.179688 139.28125 157.300781 139.074219 C 157.417969 138.875 157.554688 138.679688 157.644531 138.46875 C 157.738281 138.246094 157.835938 138.019531 157.925781 137.796875 C 157.925781 137.792969 157.925781 137.792969 157.929688 137.792969 C 157.9375 137.78125 157.945312 137.765625 157.953125 137.75 C 157.984375 137.695312 158.015625 137.640625 158.046875 137.582031 C 158.121094 137.449219 158.195312 137.316406 158.269531 137.183594 C 158.375 137 158.503906 136.828125 158.625 136.652344 C 158.851562 136.320312 159.027344 135.960938 159.21875 135.613281 C 159.382812 135.3125 159.542969 135.011719 159.707031 134.714844 C 159.605469 134.984375 159.503906 135.253906 159.394531 135.523438 C 159.226562 135.933594 159.109375 136.367188 158.941406 136.777344 C 158.875 136.929688 158.8125 137.082031 158.75 137.238281 C 158.734375 137.273438 158.71875 137.3125 158.703125 137.347656 C 158.738281 137.269531 158.703125 137.347656 158.683594 137.386719 C 158.570312 137.613281 158.425781 137.84375 158.34375 138.085938 C 158.296875 138.210938 158.269531 138.339844 158.230469 138.464844 C 158.210938 138.539062 158.1875 138.617188 158.167969 138.691406 C 158.152344 138.734375 158.121094 138.800781 158.121094 138.84375 C 158.121094 138.847656 158.117188 138.851562 158.117188 138.855469 C 158.085938 138.921875 158.054688 138.988281 158.027344 139.050781 C 157.960938 139.199219 157.890625 139.34375 157.824219 139.492188 C 157.726562 139.699219 157.621094 139.90625 157.519531 140.113281 C 157.414062 140.328125 157.355469 140.546875 157.285156 140.777344 C 157.265625 140.847656 157.246094 140.914062 157.226562 140.984375 C 157.21875 141.007812 157.210938 141.03125 157.207031 141.054688 C 157.207031 141.054688 157.207031 141.054688 157.203125 141.058594 C 157.144531 141.144531 157.101562 141.257812 157.050781 141.347656 C 156.9375 141.558594 156.828125 141.757812 156.738281 141.976562 C 156.675781 142.128906 156.613281 142.277344 156.550781 142.429688 C 156.539062 142.464844 156.519531 142.503906 156.507812 142.539062 C 156.546875 142.441406 156.5 142.550781 156.488281 142.578125 C 156.386719 142.8125 156.261719 143.050781 156.175781 143.292969 C 156.089844 143.542969 156.039062 143.800781 155.957031 144.050781 C 155.882812 144.269531 155.789062 144.480469 155.703125 144.695312 C 155.6875 144.683594 155.667969 144.671875 155.644531 144.664062 C 155.40625 144.5625 155.167969 144.460938 154.925781 144.367188 C 154.910156 144.355469 154.886719 144.347656 154.867188 144.339844 C 154.789062 144.300781 154.710938 144.265625 154.632812 144.226562 Z M 154.550781 150.546875 C 154.625 150.242188 154.65625 149.929688 154.703125 149.621094 C 154.746094 149.347656 154.828125 149.074219 154.886719 148.800781 C 155.023438 148.195312 155.140625 147.589844 155.257812 146.980469 C 155.28125 146.84375 155.300781 146.703125 155.332031 146.5625 C 155.378906 146.554688 155.421875 146.523438 155.449219 146.46875 C 155.628906 146.082031 155.808594 145.703125 156.011719 145.328125 C 156.191406 144.996094 156.402344 144.675781 156.570312 144.335938 C 156.773438 143.917969 156.96875 143.496094 157.175781 143.078125 C 157.335938 142.753906 157.539062 142.449219 157.703125 142.121094 C 157.796875 141.933594 157.886719 141.742188 157.988281 141.558594 C 158.109375 141.347656 158.242188 141.144531 158.359375 140.933594 C 158.542969 140.609375 158.667969 140.242188 158.8125 139.902344 C 158.890625 139.722656 158.953125 139.539062 159.054688 139.375 C 159.179688 139.179688 159.324219 138.988281 159.433594 138.785156 C 159.539062 138.585938 159.617188 138.371094 159.707031 138.164062 C 159.785156 137.992188 159.871094 137.820312 159.953125 137.648438 C 160 137.554688 160.042969 137.464844 160.089844 137.375 C 160.023438 137.621094 159.960938 137.867188 159.886719 138.113281 C 159.839844 138.269531 159.78125 138.421875 159.726562 138.578125 C 159.691406 138.671875 159.65625 138.765625 159.625 138.859375 C 159.625 138.867188 159.621094 138.871094 159.621094 138.875 C 159.609375 138.898438 159.601562 138.925781 159.589844 138.949219 C 159.433594 139.308594 159.285156 139.660156 159.15625 140.027344 C 159.121094 140.128906 159.082031 140.226562 159.046875 140.328125 C 159.046875 140.335938 159.042969 140.339844 159.042969 140.34375 C 159.035156 140.363281 159.023438 140.386719 159.015625 140.40625 C 158.921875 140.605469 158.828125 140.808594 158.738281 141.007812 C 158.457031 141.636719 158.21875 142.285156 157.980469 142.929688 C 157.847656 143.28125 157.71875 143.632812 157.585938 143.984375 C 157.578125 144.003906 157.570312 144.023438 157.566406 144.042969 C 157.566406 144.039062 157.566406 144.035156 157.566406 144.03125 C 157.566406 144.042969 157.5625 144.050781 157.558594 144.058594 C 157.511719 144.164062 157.46875 144.269531 157.421875 144.375 C 157.359375 144.519531 157.292969 144.664062 157.238281 144.8125 C 157.15625 145.023438 157.074219 145.230469 156.992188 145.441406 C 156.988281 145.453125 156.984375 145.464844 156.980469 145.476562 C 156.976562 145.480469 156.96875 145.496094 156.953125 145.515625 C 156.890625 145.601562 156.835938 145.691406 156.777344 145.78125 C 156.6875 145.914062 156.558594 146.058594 156.511719 146.210938 C 156.449219 146.421875 156.402344 146.644531 156.347656 146.859375 C 156.339844 146.886719 156.324219 146.921875 156.324219 146.949219 C 156.324219 146.949219 156.324219 146.949219 156.324219 146.953125 C 156.28125 147.039062 156.242188 147.128906 156.203125 147.214844 C 156.128906 147.378906 156.050781 147.539062 155.984375 147.703125 C 155.84375 148.03125 155.699219 148.355469 155.601562 148.699219 C 155.570312 148.816406 155.535156 148.933594 155.503906 149.054688 C 155.492188 149.089844 155.480469 149.128906 155.472656 149.164062 C 155.472656 149.167969 155.472656 149.167969 155.472656 149.171875 C 155.375 149.359375 155.289062 149.554688 155.199219 149.742188 C 155.058594 150.039062 155.003906 150.363281 154.898438 150.671875 C 154.789062 151 154.664062 151.324219 154.53125 151.644531 C 154.460938 151.808594 154.382812 151.976562 154.324219 152.148438 C 154.253906 152.339844 154.207031 152.535156 154.148438 152.730469 C 154.132812 152.773438 154.121094 152.816406 154.109375 152.859375 C 154.09375 152.910156 154.089844 152.910156 154.109375 152.867188 C 154.105469 152.878906 154.097656 152.894531 154.089844 152.910156 C 154.113281 152.773438 154.132812 152.632812 154.160156 152.496094 C 154.273438 151.839844 154.398438 151.191406 154.550781 150.546875 Z M 157.066406 149.546875 C 156.882812 149.796875 156.695312 150.050781 156.515625 150.308594 C 156.445312 150.410156 156.382812 150.519531 156.320312 150.628906 C 156.261719 150.722656 156.207031 150.8125 156.152344 150.90625 C 156.132812 150.9375 156.113281 150.964844 156.097656 150.996094 C 156.09375 151.007812 156.089844 151.011719 156.085938 151.015625 C 155.929688 151.195312 155.765625 151.375 155.621094 151.566406 C 155.652344 151.5 155.679688 151.429688 155.707031 151.363281 C 155.75 151.261719 155.792969 151.15625 155.835938 151.050781 C 155.839844 151.035156 155.847656 151.019531 155.855469 151 C 155.859375 151 155.859375 150.996094 155.863281 150.988281 C 156.019531 150.710938 156.160156 150.417969 156.292969 150.125 C 156.441406 149.804688 156.59375 149.492188 156.765625 149.183594 C 156.933594 148.878906 157.074219 148.570312 157.21875 148.253906 C 157.269531 148.136719 157.3125 148.019531 157.351562 147.894531 C 157.386719 147.78125 157.421875 147.671875 157.457031 147.558594 C 157.476562 147.5 157.511719 147.429688 157.523438 147.367188 C 157.523438 147.363281 157.523438 147.363281 157.523438 147.363281 C 157.546875 147.324219 157.566406 147.289062 157.589844 147.25 C 157.648438 147.148438 157.707031 147.050781 157.761719 146.949219 C 157.824219 146.84375 157.890625 146.734375 157.945312 146.625 C 158.101562 146.3125 158.261719 146.007812 158.378906 145.675781 C 158.417969 145.566406 158.457031 145.457031 158.496094 145.347656 C 158.511719 145.308594 158.527344 145.269531 158.539062 145.230469 C 158.546875 145.210938 158.550781 145.199219 158.554688 145.191406 C 158.554688 145.195312 158.546875 145.207031 158.539062 145.230469 C 158.617188 145.0625 158.691406 144.890625 158.769531 144.71875 C 158.910156 144.417969 159.09375 144.140625 159.261719 143.851562 C 159.332031 143.738281 159.382812 143.613281 159.441406 143.492188 C 159.511719 143.347656 159.605469 143.195312 159.652344 143.042969 C 159.710938 142.863281 159.734375 142.667969 159.773438 142.480469 C 159.785156 142.4375 159.835938 142.3125 159.824219 142.269531 C 159.839844 142.238281 159.855469 142.207031 159.871094 142.179688 C 160.035156 141.867188 160.195312 141.5625 160.339844 141.242188 C 160.515625 140.847656 160.707031 140.460938 160.878906 140.066406 C 160.808594 140.289062 160.730469 140.515625 160.652344 140.742188 C 160.644531 140.769531 160.628906 140.800781 160.621094 140.828125 C 160.613281 140.839844 160.609375 140.851562 160.601562 140.859375 C 160.527344 140.972656 160.460938 141.089844 160.390625 141.207031 C 160.28125 141.378906 160.195312 141.519531 160.144531 141.714844 C 160.089844 141.921875 160.046875 142.132812 159.976562 142.332031 C 159.894531 142.5625 159.789062 142.785156 159.703125 143.015625 C 159.628906 143.207031 159.578125 143.40625 159.519531 143.601562 C 159.503906 143.652344 159.484375 143.707031 159.46875 143.761719 C 159.46875 143.773438 159.457031 143.789062 159.457031 143.804688 C 159.417969 143.898438 159.378906 143.988281 159.339844 144.082031 C 159.167969 144.476562 158.980469 144.871094 158.828125 145.273438 C 158.679688 145.664062 158.566406 146.070312 158.433594 146.46875 C 158.40625 146.554688 158.367188 146.644531 158.34375 146.734375 C 158.34375 146.738281 158.339844 146.75 158.335938 146.765625 C 158.335938 146.769531 158.332031 146.769531 158.332031 146.773438 C 158.332031 146.769531 158.332031 146.769531 158.335938 146.769531 C 158.332031 146.773438 158.332031 146.777344 158.328125 146.78125 C 158.304688 146.835938 158.28125 146.890625 158.253906 146.945312 C 158.167969 147.136719 158.0625 147.332031 157.996094 147.53125 C 157.871094 147.929688 157.769531 148.332031 157.671875 148.734375 C 157.46875 149.003906 157.265625 149.273438 157.066406 149.546875 Z M 161.066406 148.046875 C 161.003906 147.980469 160.9375 147.910156 160.871094 147.847656 C 160.859375 147.835938 160.855469 147.832031 160.851562 147.824219 C 160.839844 147.8125 160.832031 147.800781 160.820312 147.785156 C 160.691406 147.609375 160.558594 147.429688 160.425781 147.253906 C 160.238281 147 160.003906 146.777344 159.789062 146.546875 C 159.714844 146.46875 159.585938 146.476562 159.507812 146.546875 C 159.300781 146.742188 159.066406 146.925781 158.890625 147.148438 C 158.867188 147.179688 158.84375 147.210938 158.816406 147.238281 C 158.820312 147.234375 158.824219 147.226562 158.828125 147.222656 C 158.972656 146.933594 159.085938 146.628906 159.226562 146.335938 C 159.378906 146.019531 159.550781 145.710938 159.71875 145.398438 C 159.90625 145.058594 160.089844 144.714844 160.273438 144.371094 C 160.34375 144.234375 160.394531 144.09375 160.453125 143.949219 C 160.496094 143.832031 160.542969 143.714844 160.585938 143.597656 C 160.597656 143.574219 160.605469 143.550781 160.617188 143.523438 C 160.617188 143.523438 160.621094 143.519531 160.621094 143.515625 C 160.847656 143.203125 161.019531 142.863281 161.15625 142.511719 C 161.199219 142.398438 161.242188 142.285156 161.285156 142.171875 C 161.292969 142.144531 161.304688 142.121094 161.3125 142.09375 C 161.289062 142.160156 161.300781 142.128906 161.320312 142.085938 C 161.421875 141.886719 161.527344 141.691406 161.628906 141.488281 C 161.769531 141.21875 161.871094 140.925781 162.035156 140.667969 C 162.097656 140.574219 162.15625 140.476562 162.21875 140.378906 C 162.25 140.386719 162.28125 140.382812 162.3125 140.378906 C 162.300781 140.417969 162.285156 140.457031 162.273438 140.5 C 162.242188 140.605469 162.203125 140.710938 162.179688 140.816406 C 162.125 141.070312 162.132812 141.34375 162.0625 141.59375 C 161.988281 141.847656 161.832031 142.078125 161.765625 142.332031 C 161.738281 142.441406 161.746094 142.574219 161.742188 142.6875 C 161.730469 142.835938 161.707031 142.992188 161.710938 143.144531 C 161.707031 143.15625 161.707031 143.175781 161.703125 143.183594 C 161.679688 143.261719 161.660156 143.34375 161.640625 143.421875 C 161.601562 143.570312 161.566406 143.722656 161.523438 143.871094 C 161.449219 144.117188 161.332031 144.355469 161.238281 144.59375 C 161.144531 144.828125 161.074219 145.074219 160.996094 145.3125 C 160.910156 145.578125 160.882812 145.859375 160.816406 146.128906 C 160.75 146.386719 160.628906 146.636719 160.535156 146.886719 C 160.457031 147.09375 160.808594 147.242188 160.898438 147.039062 C 160.996094 146.816406 161.09375 146.59375 161.191406 146.375 C 161.269531 146.191406 161.378906 146.023438 161.476562 145.851562 C 161.570312 145.691406 161.664062 145.527344 161.761719 145.367188 C 161.875 145.175781 162.027344 144.980469 162.105469 144.769531 C 162.199219 144.53125 162.277344 144.285156 162.359375 144.046875 C 162.363281 144.035156 162.367188 144.027344 162.371094 144.019531 C 162.371094 144.015625 162.375 144.011719 162.378906 144.003906 C 162.375 144.007812 162.371094 144.015625 162.371094 144.019531 C 162.371094 144.011719 162.375 144.003906 162.375 144 C 162.382812 143.976562 162.390625 143.980469 162.382812 144 C 162.394531 143.980469 162.402344 143.953125 162.414062 143.933594 C 162.488281 143.804688 162.558594 143.671875 162.632812 143.539062 C 162.675781 143.464844 162.714844 143.386719 162.75 143.308594 C 162.683594 143.570312 162.648438 143.839844 162.582031 144.101562 C 162.515625 144.371094 162.417969 144.632812 162.347656 144.902344 C 162.277344 145.167969 162.234375 145.4375 162.164062 145.703125 C 162.09375 145.96875 161.988281 146.226562 161.902344 146.488281 C 161.816406 146.75 161.742188 147.015625 161.671875 147.28125 C 161.59375 147.5625 161.566406 147.855469 161.5 148.136719 C 161.476562 148.230469 161.453125 148.328125 161.425781 148.421875 C 161.304688 148.296875 161.1875 148.171875 161.066406 148.046875 Z M 161.777344 148.789062 C 161.847656 148.628906 161.917969 148.464844 161.992188 148.304688 C 162.113281 148.042969 162.230469 147.769531 162.375 147.519531 C 162.519531 147.269531 162.703125 147.035156 162.859375 146.792969 C 163.007812 146.566406 163.152344 146.335938 163.300781 146.109375 C 163.257812 146.382812 163.230469 146.65625 163.160156 146.921875 C 163.074219 147.25 162.988281 147.574219 162.929688 147.90625 C 162.871094 148.246094 162.816406 148.585938 162.765625 148.925781 C 162.726562 149.179688 162.683594 149.4375 162.644531 149.691406 C 162.546875 149.597656 162.453125 149.5 162.359375 149.402344 C 162.164062 149.199219 161.96875 148.996094 161.777344 148.789062 Z M 163.664062 150.679688 C 163.445312 150.464844 163.222656 150.253906 163 150.039062 C 163.167969 149.6875 163.339844 149.335938 163.507812 148.984375 C 163.585938 148.820312 163.65625 148.671875 163.757812 148.519531 C 163.835938 148.402344 163.917969 148.285156 163.996094 148.167969 C 164.027344 148.121094 164.058594 148.074219 164.089844 148.03125 C 164.09375 148.023438 164.101562 148.015625 164.105469 148.007812 C 164.140625 147.980469 164.171875 147.945312 164.203125 147.910156 C 164.179688 148.203125 164.15625 148.496094 164.148438 148.785156 C 164.144531 148.929688 164.148438 149.070312 164.144531 149.214844 C 164.144531 149.292969 164.144531 149.371094 164.144531 149.453125 C 164.144531 149.472656 164.144531 149.496094 164.144531 149.519531 C 164.109375 149.636719 164.101562 149.777344 164.078125 149.898438 C 164.058594 150.011719 164.035156 150.128906 164.015625 150.25 C 163.980469 150.484375 163.964844 150.726562 163.949219 150.964844 C 163.855469 150.867188 163.761719 150.773438 163.664062 150.679688 Z M 165.488281 151.304688 C 165.597656 151.628906 165.671875 151.953125 165.75 152.28125 C 165.777344 152.386719 165.808594 152.492188 165.84375 152.597656 C 165.796875 152.566406 165.75 152.535156 165.703125 152.503906 C 165.679688 152.488281 165.660156 152.472656 165.636719 152.460938 C 165.511719 152.332031 165.359375 152.21875 165.226562 152.101562 C 165.144531 152.03125 165.0625 151.960938 164.980469 151.890625 C 164.75 151.707031 164.5 151.535156 164.296875 151.324219 C 164.277344 151.304688 164.261719 151.289062 164.242188 151.269531 C 164.265625 151.257812 164.289062 151.238281 164.304688 151.21875 C 164.515625 150.949219 164.714844 150.679688 164.914062 150.410156 C 164.910156 150.511719 164.910156 150.613281 164.90625 150.71875 C 164.894531 151.011719 164.859375 151.304688 164.839844 151.597656 C 164.820312 151.847656 165.214844 151.847656 165.234375 151.597656 C 165.257812 151.308594 165.289062 151.019531 165.300781 150.730469 C 165.363281 150.921875 165.421875 151.117188 165.488281 151.304688 Z M 164.945312 149.59375 C 164.953125 149.617188 164.960938 149.640625 164.96875 149.664062 C 164.960938 149.671875 164.949219 149.675781 164.945312 149.6875 C 164.765625 149.945312 164.582031 150.199219 164.394531 150.449219 C 164.398438 150.410156 164.402344 150.367188 164.402344 150.324219 C 164.40625 150.320312 164.40625 150.316406 164.40625 150.308594 C 164.421875 150.234375 164.433594 150.15625 164.445312 150.082031 C 164.472656 149.929688 164.503906 149.777344 164.527344 149.625 C 164.570312 149.375 164.542969 149.101562 164.542969 148.847656 C 164.542969 148.617188 164.570312 148.382812 164.585938 148.152344 C 164.695312 148.636719 164.792969 149.121094 164.945312 149.59375 Z M 164.265625 147.054688 C 164.28125 147.097656 164.292969 147.140625 164.308594 147.183594 C 164.308594 147.1875 164.308594 147.1875 164.304688 147.1875 C 164.152344 147.359375 163.996094 147.53125 163.84375 147.707031 C 163.707031 147.863281 163.601562 148.046875 163.484375 148.21875 C 163.371094 148.382812 163.277344 148.554688 163.191406 148.734375 C 163.21875 148.554688 163.25 148.378906 163.277344 148.199219 C 163.339844 147.855469 163.410156 147.53125 163.5 147.191406 C 163.585938 146.867188 163.632812 146.539062 163.683594 146.207031 C 163.714844 145.996094 163.761719 145.785156 163.808594 145.574219 C 163.867188 145.796875 163.929688 146.023438 164 146.242188 C 164.085938 146.515625 164.171875 146.785156 164.265625 147.054688 Z M 165.789062 142.964844 C 165.546875 143.089844 165.335938 143.296875 165.121094 143.460938 C 165.105469 143.472656 165.085938 143.484375 165.070312 143.5 C 165.070312 143.5 165.070312 143.5 165.066406 143.5 C 165.007812 143.519531 164.941406 143.578125 164.890625 143.609375 C 164.804688 143.664062 164.71875 143.71875 164.632812 143.773438 C 164.667969 143.703125 164.707031 143.636719 164.746094 143.570312 C 164.9375 143.25 165.128906 142.933594 165.324219 142.617188 C 165.519531 142.296875 165.722656 141.980469 165.925781 141.664062 C 166.105469 141.382812 166.269531 141.085938 166.460938 140.8125 C 166.574219 140.648438 166.703125 140.496094 166.824219 140.335938 C 166.84375 140.308594 166.863281 140.28125 166.886719 140.253906 C 166.878906 140.292969 166.875 140.328125 166.867188 140.363281 C 166.835938 140.539062 166.800781 140.714844 166.777344 140.894531 C 166.75 141.101562 166.722656 141.3125 166.695312 141.523438 C 166.6875 141.570312 166.683594 141.617188 166.675781 141.660156 C 166.675781 141.664062 166.675781 141.671875 166.671875 141.675781 C 166.675781 141.671875 166.675781 141.671875 166.675781 141.671875 C 166.65625 141.734375 166.652344 141.808594 166.640625 141.875 C 166.605469 142.097656 166.566406 142.324219 166.53125 142.550781 C 166.53125 142.550781 166.53125 142.554688 166.53125 142.558594 C 166.519531 142.566406 166.507812 142.574219 166.492188 142.585938 C 166.285156 142.742188 166.019531 142.84375 165.789062 142.964844 Z M 167.777344 141.636719 C 167.609375 141.75 167.441406 141.871094 167.273438 141.996094 C 167.355469 141.835938 167.410156 141.671875 167.472656 141.507812 C 167.519531 141.386719 167.566406 141.265625 167.609375 141.144531 C 167.609375 141.144531 167.609375 141.144531 167.609375 141.140625 C 167.644531 141.105469 167.667969 141.046875 167.691406 141.007812 C 167.769531 140.878906 167.851562 140.75 167.929688 140.621094 C 167.957031 140.574219 167.988281 140.53125 168.011719 140.484375 C 168.011719 140.480469 168.015625 140.480469 168.015625 140.476562 C 168.015625 140.476562 168.015625 140.476562 168.019531 140.476562 C 168.109375 140.425781 168.191406 140.34375 168.273438 140.265625 C 168.261719 140.625 168.25 140.980469 168.238281 141.339844 C 168.222656 141.347656 168.207031 141.359375 168.191406 141.367188 C 168.054688 141.457031 167.914062 141.542969 167.777344 141.636719 Z M 169.753906 140.285156 C 169.734375 140.292969 169.71875 140.304688 169.699219 140.316406 C 169.621094 140.367188 169.542969 140.414062 169.464844 140.464844 C 169.335938 140.539062 169.207031 140.613281 169.082031 140.695312 C 169.050781 140.71875 169.019531 140.746094 168.984375 140.769531 C 168.984375 140.769531 168.984375 140.769531 168.984375 140.765625 C 169.144531 140.546875 169.304688 140.328125 169.453125 140.101562 C 169.523438 140.105469 169.59375 140.105469 169.667969 140.105469 C 169.765625 140.105469 169.863281 140.101562 169.960938 140.097656 C 169.886719 140.15625 169.8125 140.21875 169.753906 140.285156 Z M 169.753906 140.285156 " fill-opacity="1" fill-rule="nonzero"/></g></svg>